<?xml version="1.0" encoding="utf-8"?>
<!-- Generator: Adobe Illustrator 16.0.3, SVG Export Plug-In . SVG Version: 6.00 Build 0)  -->
<!DOCTYPE svg PUBLIC "-//W3C//DTD SVG 1.1//EN" "http://www.w3.org/Graphics/SVG/1.1/DTD/svg11.dtd">
<svg version="1.1" id="Layer_1" xmlns="http://www.w3.org/2000/svg" xmlns:xlink="http://www.w3.org/1999/xlink" x="0px" y="0px"
	 width="1920px" height="1080px" viewBox="0 0 1920 1080" enable-background="new 0 0 1920 1080" xml:space="preserve">
<g id="Foreground_Hill_2">
	<g id="XMLID_1_">
		<g>
			
				<linearGradient id="SVGID_1_" gradientUnits="userSpaceOnUse" x1="971.5156" y1="1.1494" x2="971.5156" y2="1929.3849" gradientTransform="matrix(1 0 0 -1 0 1081)">
				<stop  offset="0" style="stop-color:#A7C285"/>
				<stop  offset="0.4084" style="stop-color:#A5C694"/>
				<stop  offset="1" style="stop-color:#A0CDB0"/>
			</linearGradient>
			<path fill="url(#SVGID_1_)" d="M2.386,1169.344C1131.221,738.402,1073.304,844.922,1940.645,811.37v357.974H2.386z"/>
		</g>
		<g>
			<path fill="none" stroke="#C1CCAB" stroke-width="5.419" stroke-miterlimit="10" d="M2.386,1169.344
				C1131.221,738.402,1073.304,844.922,1940.645,811.37"/>
			
				<line fill="none" stroke="#C1CCAB" stroke-width="5.419" stroke-miterlimit="10" x1="2.386" y1="1169.344" x2="1940.645" y2="1169.344"/>
			<polyline fill="none" stroke="#C1CCAB" stroke-width="5.419" stroke-miterlimit="10" points="1940.645,1169.344 1940.645,811.37 
				1940.645,811.262 			"/>
		</g>
	</g>
	<g>
		<g>
			
				<linearGradient id="SVGID_2_" gradientUnits="userSpaceOnUse" x1="806.1543" y1="-228.4116" x2="1263.1658" y2="228.5998" gradientTransform="matrix(1 0 0 -1 0 1081)">
				<stop  offset="0" style="stop-color:#F1DFB3"/>
				<stop  offset="1" style="stop-color:#F1DFB3"/>
			</linearGradient>
			<path fill="url(#SVGID_2_)" d="M1302.276,891.613c-10.913,10.91-21.079,22.629-33.249,32.196
				c5.482-4.235,10.967-8.474,16.451-12.71c-6.241,4.771-12.867,8.802-20.074,11.942c6.473-2.731,12.944-5.463,19.418-8.194
				c-13.53,5.583-27.17,10.899-40.28,17.433c-7.233,3.604-14.379,7.366-21.799,10.582c6.473-2.731,12.944-5.463,19.417-8.194
				c-10.973,4.468-22.53,6.884-34.116,9.158c-11.746,2.306-23.132,5.119-34.56,8.693c-23.259,7.275-46.34,15.385-70.592,18.677
				c7.203-0.968,14.406-1.937,21.609-2.903c-14.798,1.852-29.771,1.521-44.652,1.99c-21.489,0.678-42.953,3.054-64.111,6.871
				c-21.673,3.91-42.083,13.738-62.377,21.997c-50.104,20.386-100.033,41.36-148.988,64.39
				c-25.343,11.921-50.419,24.457-74.851,38.16c-26.792,15.027-51.514,32.071-75.598,51.154c-4.236,5.482-8.474,10.968-12.71,16.451
				c-7.353,12.678-11.052,26.354-11.098,41.025c0,21.473,8.633,42.303,23.808,57.479s36.005,23.808,57.479,23.808
				c7.203-0.968,14.405-1.937,21.608-2.903c13.771-3.861,25.728-10.83,35.869-20.903c0.825-0.653,1.652-1.304,2.482-1.949
				c-5.484,4.235-10.969,8.474-16.451,12.71c30.121-23.256,64.202-41.384,98.1-58.428c38.767-19.492,78.477-37.09,118.437-53.974
				c-6.474,2.731-12.945,5.462-19.417,8.194c18.199-7.68,36.467-15.191,54.777-22.6c19.993-8.091,39.341-16.188,60.884-19.255
				c-7.203,0.97-14.406,1.938-21.609,2.904c21.8-2.915,43.728-2.417,65.644-3.387c29.268-1.294,57.781-7.827,85.584-16.576
				c10.639-3.347,21.23-6.835,31.932-9.984c10.605-3.12,21.652-4.688,32.452-7.003c27.854-5.967,51.971-20.664,77.775-31.857
				c-6.473,2.73-12.944,5.463-19.418,8.193c12.525-5.262,25.548-9.582,37.341-16.402c11.25-6.509,21.443-15.12,31.298-23.479
				c10.229-8.678,19.072-18.884,28.544-28.352c31.32-31.312,31.312-83.643,0-114.955
				C1385.911,860.293,1333.598,860.301,1302.276,891.613L1302.276,891.613z"/>
		</g>
	</g>
	<g>
		<g>
			<g>
				<g>
					<g>
						<path fill="#F4EBD8" d="M1257.375,988.868c0.485-0.523,1.227-1.931,0.715-1.87l-1.629,2.161L1257.375,988.868z"/>
						<path fill="#F4EBD8" d="M1257.562,983.178c-1.08,0.873-2.731,2.558-3.729,4.838c1.734-1.977,1.28-0.989,3.298-3.369
							c0.513-0.06,0.172,1.107-0.396,1.923c0.479-0.52,0.243,0.834,1.299-0.505c0.608-2.062,0.073-2.479-1.413-1.364
							C1256.794,984.114,1257.28,983.586,1257.562,983.178z"/>
						<path fill="#F4EBD8" d="M1223.684,962.467l0.067,0.41C1223.778,962.688,1223.749,962.558,1223.684,962.467z"/>
						<path fill="#F4EBD8" d="M1200.589,950.992c0.208-0.004,0.365-0.233,0.448-0.463
							C1200.809,950.643,1200.616,950.756,1200.589,950.992z"/>
						<path fill="#F4EBD8" d="M1197.097,946.896c0.072,0.107,0.144,0.166,0.214,0.245
							C1197.275,946.877,1197.21,946.718,1197.097,946.896z"/>
						<path fill="#F4EBD8" d="M1223.684,962.467l-0.167-1.075C1223.037,962.128,1223.494,962.132,1223.684,962.467z"/>
						<path fill="#F4EBD8" d="M1249.5,985.922c0.188-0.042,0.414-0.197,0.671-0.423c-0.156,0.041-0.301,0.067-0.436,0.07
							C1249.656,985.688,1249.589,985.789,1249.5,985.922z"/>
						<path fill="#F4EBD8" d="M1233.934,965.871l0.163,0.086c0.185-0.247,0.395-0.555,0.621-0.905L1233.934,965.871z"/>
						<path fill="#F4EBD8" d="M1241.075,968.229c-0.138-0.15-0.931,1.991-1.318,2.914c0.401-0.856,0.673-1.238,0.88-1.354
							C1240.778,969.377,1240.921,968.877,1241.075,968.229z"/>
						<path fill="#F4EBD8" d="M1252.63,977.008l0.364-0.148C1252.892,976.91,1252.756,976.936,1252.63,977.008z"/>
						<path fill="#F4EBD8" d="M1229.304,962.692c0.161-0.3,0.287-0.57,0.354-0.742
							C1229.51,962.198,1229.396,962.447,1229.304,962.692z"/>
						<path fill="#F4EBD8" d="M1056.697,847.695c0.135,0.105,0.207,0.165,0.316,0.254
							C1056.848,847.787,1056.726,847.683,1056.697,847.695z"/>
						<path fill="#F4EBD8" d="M1065.872,845.672l0.216,0.104c0.48-0.021,0.945-0.043,1.4-0.062L1065.872,845.672z"/>
						<path fill="#F4EBD8" d="M1189.5,942.145c0.012,0.028,0.017,0.029,0.029,0.051C1189.8,941.979,1189.666,942,1189.5,942.145z"/>
						<path fill="#F4EBD8" d="M1122.911,921.743c0.183,2.177-1.902,2.184-1.408,4.683
							C1121.649,925.539,1123.456,923.28,1122.911,921.743z"/>
						<path fill="#F4EBD8" d="M1249.467,985.553c-0.109-0.036-0.219-0.078-0.307-0.154
							C1249.257,985.54,1249.351,985.59,1249.467,985.553z"/>
						<path fill="#F4EBD8" d="M1121.503,926.426c-0.003,0.01-0.005,0.021-0.005,0.021l0.058,0.239
							C1121.534,926.578,1121.521,926.518,1121.503,926.426z"/>
						<path fill="#F4EBD8" d="M1172.674,940.466c-0.084,0.395-0.112,0.702-0.132,0.998
							C1172.604,941.237,1172.648,940.954,1172.674,940.466z"/>
						<path fill="#F4EBD8" d="M1183.885,945.892l-0.29-0.345C1183.697,945.77,1183.795,945.854,1183.885,945.892z"/>
						<path fill="#F4EBD8" d="M1165.893,941.447c-0.085-0.224-0.014-0.534-0.337-0.334c-0.025,0.113-0.039,0.195-0.046,0.281
							C1165.706,941.136,1165.859,941.042,1165.893,941.447z"/>
						<path fill="#F4EBD8" d="M1159.834,938.656c-0.047,0.172-0.062,0.311-0.096,0.469c0.081-0.01,0.169-0.007,0.249-0.011
							L1159.834,938.656z"/>
						<path fill="#F4EBD8" d="M1042.297,867.406c0.676,0.025,1.393,0.188,2.078,0.371
							C1042.814,867.291,1042.913,865.649,1042.297,867.406z"/>
						<path fill="#F4EBD8" d="M1250.155,984.817c-0.332,0.474-0.53,0.687-0.688,0.734c0.084,0.021,0.176,0.021,0.27,0.018
							C1249.928,985.289,1250.096,985.016,1250.155,984.817z"/>
						<path fill="#F4EBD8" d="M1158.708,957.983l-1.091-0.811C1157.87,957.516,1158.27,957.806,1158.708,957.983z"/>
						<path fill="#F4EBD8" d="M1073.7,915.488c-0.005-0.01-0.323,0.136-0.323,0.136
							C1073.421,915.705,1073.517,915.677,1073.7,915.488z"/>
						<path fill="#F4EBD8" d="M1154.014,955.875c0.143-0.823,0.129-1.347,0.039-1.726c-0.126,0.138-0.245,0.243-0.394,0.466
							L1154.014,955.875z"/>
						<path fill="#F4EBD8" d="M1044.396,867.783c-0.01-0.001-0.021-0.006-0.021-0.006S1044.388,867.782,1044.396,867.783z"/>
						<path fill="#F4EBD8" d="M1045.373,856.141c-0.993,1.113,1.849,2.385,3.003,3.697c-0.33,1.79-2.215-0.752-3.804-1.203
							c-0.059,1.394,1.753,3.642,1.234,4.244c-0.448-0.217-0.689-0.177-1.108-0.668c0.679,1.12,0.278,1.876-0.062,2.716
							c-0.354,0.807-0.571,1.804,0.517,2.996c-0.284-0.019-0.536-0.072-0.755-0.14c1.472,0.398,2.877,1.002,3.855,1.474
							c-0.213,0.546,1.377,1.663-0.538,1.153c0.176-0.308-0.551-0.624-1.058-1.018l0.576,0.896c-2.845-0.451-0.61-1.159-2.537-1.962
							c0.183,0.809,0.699,1.759,1.051,2.545c0.376,0.805,0.606,1.462,0.093,1.815c-2.74-0.46-0.267-2.508-2.994-1.869
							c0,0,0.359-0.331,0.735-0.636c0.387-0.291,0.772-0.582,0.772-0.582c-4.547-0.249,0.649-0.884-4.155-1.312
							c-0.814,1.001-0.615,1.822-0.469,2.554c0.147,0.747,0.346,1.454-0.251,2.567c1.422,0.771,2.265,0.228,3.692,0.963
							c0.536,0.84,0.427,1.308-0.073,1.655c-0.495,0.344-1.354,0.553-2.184,0.763c-1.668,0.403-3.193,0.876-1.338,2.095
							c0.923,0.306,2.258,0.481,3.135,0.768c0.867,0.295,1.301,0.656,0.459,1.469c0,0-0.79-0.065-1.58-0.13
							c-0.791-0.078-1.582-0.156-1.582-0.156c-0.053,1.089,1.1,1.277,2.021,1.464c0.925,0.197,1.6,0.379,0.761,1.536
							c-1.29-0.134-1.279-1.384-1.595-1.031c-2.229,1.764,1.912,0.696,2.086,1.659l-2.67,0.756c0.389,1.036,1.345,2.058,2.244,2.994
							c0.23,0.233,0.453,0.479,0.687,0.694l0.702,0.623c0.45,0.417,0.857,0.842,1.178,1.297c-0.8,0.213-1.75,0.173-2.326,1
							c0.584,0.555,1.06,1.121,1.379,1.796c0.162,0.333,0.297,0.684,0.404,1.05c0.131,0.37,0.246,0.759,0.34,1.159
							c0.336,1.593,0.568,3.447,0.895,5.255c0,0,0.665-0.122,1.331-0.245c0.652-0.142,1.305-0.283,1.305-0.283
							c0.148,0.227-0.495,1.097-1.046,1.153c0.115,1.562,1.192-0.929,2.271-1.096c0.561,0.379-0.393,1.588-1.238,1.742
							c0.76,0.067,1.601,0.184,2.417,0.352c0.82,0.164,1.662,0.332,2.378,0.616c1.454,0.521,2.537,1.356,2.735,2.97l-0.729,0.379
							c0.444,0.85,1.494,0.075,2.379-0.65c0.896-0.724,1.647-1.348,1.719-0.042l-0.43,0.247c1.179,1.227,2.761,1.622,4.065,2.227
							c1.298,0.587,2.363,1.4,2.652,3.451c1.661-3.035,1.861,2.388,3.799-2c0.195,1.358,0.1,2.19,0.104,2.959
							c-0.012,0.77,0.152,1.445,0.486,2.569c0.27,0.397,1.852-2.396,2.604-2.563l-1.126,2.24c0,0,0.468-0.497,0.936-0.993
							c0.479-0.49,0.961-0.98,0.961-0.98s-0.267,0.706-0.53,1.412c-0.272,0.702-0.547,1.404-0.547,1.404l0.767-0.328
							c-0.104-0.219,0.164-1.181,0.542-1.798c0.646-0.322,0.917,0.356,0.922,1.239c0.004,0.874-0.261,1.937-0.587,2.489
							c0,0,0.73-0.169,1.46-0.338c0.744-0.161,1.488-0.322,1.488-0.322c-0.593,0.818-1.086,0.919-1.669,1.312
							c2.354-1.546-1.27,2.315,0.89,0.903c0.192-0.559,0.892-1.198,1.192-1.604c-0.38,1.578,0.632,2.296,1.763,2.303l-1.13,1.317
							c1.08,1.257,3.436,1.414,5.025,2.601c-0.105-1.069,1.776-3.401,2.423-3.289l-1.364,2.282c1.27-1.105,0.093-1.171,1.896-2.337
							c0.428,0.688-1.362,2.73-2.213,3.179l1.286-0.205c-0.42,0.674-0.845,0.882-1.483,1.663c1.279-1.106-0.213,3.117,1.913,1.129
							l-0.415,0.672c0.85,0.622,1.6,0.887,2.318,1.104c0.738,0.223,1.485,0.402,2.264,0.851c1.312-1.872,1.604-1.062,3.062-2.308
							c0.332,0.662,0.546,1.573,0.872,2.406c0.362,0.822,0.832,1.573,1.589,1.916c1.572-0.383,1.281-1.487,2.409-2.394
							c-0.993,1.83,0.509,2.501-0.964,3.361c1.84,0.747,2.449,0.857,5.396,0.474c0.146-0.884,0.052-1.344,0.508-1.909
							c0.538-0.114,0.495,1.224,0,2.095l-0.198,0.14c1.896-0.764,2.666,1.211,3.561,3.092c0.874,1.873,1.863,3.645,3.687,1.938
							l-0.192,0.16c0,0,0.737-0.343,1.476-0.686c0.723-0.349,1.444-0.696,1.444-0.696c0.876,0.684-1.101,1.276-0.774,2.751
							c1.741-1.234,2.607-0.796,3.377-0.312c0.771,0.503,1.468,1.137,2.721,0.291c-0.099,6.398,5.145,0.913,6.064,5.211l0.249-1.43
							c0.814-1.256,0.363,0.947,0.624,1.355c0.229-1.102-0.187-1.391,0.297-2.077c2.172-0.334,4.187,0.688,5.83,2.121
							c0.848,0.711,1.66,1.51,2.469,2.272c0.737,0.795,1.457,1.552,2.213,2.146c0.562,0.391,1.366-1.313,2.103-2.637
							c0.716-1.322,1.458-2.271,1.542-0.343c0,0-0.344,0.582-0.688,1.165c-0.336,0.586-0.672,1.171-0.672,1.171
							c1.646-1.04,2.84-0.52,3.938,0.007c1.218,0.729,2.46,1.639,4.373,1.13c-0.45,0.458-0.845,1.159-1.084,1.016
							c-0.23,0.991,0.305,1.311,0.995,1.21c0.683-0.105,1.501-0.642,1.887-1.338c0.353,0.398-0.588,1.32-0.703,2.18
							c0.059,1.343,2.688-1.372,2.087,0.514c-0.095,0.31-0.467,0.466-0.647,0.538c0.826-0.618,1.801,1.204,2.44-0.993
							c0.627,1.524,2.558,0.198,2.866,1.837c1.694-1.984,1.481,2.031,3.174-1.107c-1.635,3.293,0.823,3.677,2.285,2.363
							c-0.69,0.919,0.227,1.335-0.667,2.634c0.923,0.32,1.994,0.016,2.524-1.808c0.002,2.386,1.175,1.888,2.171,1.436
							c0.999-0.434,1.807-0.771,1.415,2.072c1.675-0.448,3.233-0.902,4.688-1.238c1.457-0.339,2.778-0.52,4.134-0.731
							c-0.403,1.785-1.146,1.747-1.847,1.71c-0.682-0.06-1.347-0.092-1.757,1.791c1.365-0.399,2.603-1.35,3.725-2.021
							c1.122-0.666,2.128-1.051,3.244-0.395c0.549,0.608-0.568,1.51-0.886,2.089c1.438-0.479,2.262-0.336,3.249-0.178
							c0.949,0.146,1.895,0.215,2.931-0.644c-0.059,0.337-0.293,0.67-0.522,0.927c0.377-0.075,0.703,0.665,0.927-0.991l-0.397,0.389
							c-0.202-2.489,2.15-4.755,2.446-6.001c-1.38,4.608,1.562,1.486-0.417,7.271c0.273-0.272,0.692-1.003,0.842-2.108
							c0.277,0.378,0.26,1.034-0.3,2.226c1.363-0.675,1.281-2.525,2.378-2.242c-0.164,0.791-0.447,1.048-0.744,1.953
							c0.851-1.423,1.75-2.837,2.547-1.964c-0.161,0.462-0.189,1.104-0.465,1.031c0.821,0.057,1.738-0.821,2.646-1.461
							c0.9-0.615,1.797-1.005,2.492-0.034c-1.427,3.248,0.303,1.272-0.415,4.223l1.169-0.628l0.027-1.516
							c0.804,0.256,2.16-1.603,2.589-0.438l-0.974,1.008l1.703-0.073l-0.531-1.37c1.307-1.231,1.042-3.697,1.922-2.539
							c-0.327,0.225,0.848,0.303,0.724,2.136c0,0-0.003-0.001-0.006,0.007c0.716-0.781,1.474-1.586,1.853-0.654
							c-0.158,0.974-1.224,3.127-1.33,3.773c1.23-2.254,2.141,0.01,3.583-2.348c-0.393,0.535-0.948,2.029-1.004,2.352l1.051-1.812
							c0.156,0.751,0.097,1.078-0.409,2.242c1.001,0.799,0.992-3.744,1.766-1.66c-0.166,0.114-0.226,0.422-0.559,0.627
							c1.04,1.345,3.118-0.193,3.991,1.264c-0.8,2.969-1.367,0.244-1.924,2.803c0.985,0.1,2.251-0.341,3.464-0.648
							c1.19-0.296,2.417-0.482,3.031,0.266l-0.157-0.457c0.997-1.909,1.098-1.264,1.126-0.335c0.034,0.933-0.021,2.139,0.838,1.432
							c-0.344,0.185-1.324,2.013-1.061,1.607c0.375,0.575,1.026,0.604,1.893,0.452c0.869-0.14,1.959-0.372,3.137-0.479l-0.76,0.841
							c0.154,1.233,1.418,1.484,1.854,2.321c0.787-0.815,1.11-0.41,1.688-1.943c-0.502,3.376,1.018,3.303,2.551,3.084
							c0.754-0.105,1.573-0.258,2.145-0.025c0.574,0.234,0.914,0.854,0.84,2.311c-0.264-0.131-1.079,0.514-0.874,0.633l2.331,0.106
							c0.699-1.755,0.269-1.146,0.561-2.653c0.744-0.878,1.6-1.34,2.057-1.164c-1.375,0.756-1.346,2.707-1.39,3.82
							c0.186-0.547,0.588-1.063,0.808-1.605c-0.397,3.46,1.753-3.358,2.14-0.753l-0.462,0.876c0.711-0.247,1.652-1.266,2.07-0.782
							c-0.564,2.119-0.897,0.722-1.606,2.363c0.868,0.229,2.969-3.197,2.91-0.956c-0.528,0.453-0.993,0.329-1.534,0.738
							c-0.114,2.703,0.2,2.091,0.633,2.677l-0.036-0.073l0.943,1.539l-0.112-0.768c2.809-5.032,2.323-0.303,4.751-3.407
							c-2.311,2.937-0.827,1.866-1.683,4.178c0.106,0.755,0.347,1.64-0.005,2.253c1.204-1.694,0.473,1.803,2.215-0.681
							c-0.216,0.765,0.6,0.278-0.171,2.12c0.953-0.343,0.266-1.364,0.646-2.285c1.004-1.084,1.493-0.098,1.935,0.832
							c0.459,0.926,0.953,1.729,2.422,0.304c0.988-0.438,1.685-1.295,2.513-2.073c0.807-0.79,1.608-1.423,2.601-1.621
							c-0.113,0.67-0.569,1.238-0.998,1.641c-0.214,0.199-0.421,0.357-0.574,0.467c-0.143,0.099-0.245,0.171-0.245,0.171
							c0.068,1.4,0.7,1.527,1.805,1.13c-0.484,0.516-0.65,1.1-0.911,1.98c0.621,0.128,1.823-2.274,1.903-0.865
							c-0.569,0.688-1.443,1.813-2.146,2.428c0.981-0.265,2.339-1.179,3.333-1.417c-0.541,1.285-1.453,1.573-2.136,2.215
							c1.022-0.111,2.469,0.02,3.808-1.729l-0.053-0.94c0.312,0.062-0.83,1.691-1.224,1.921c-1.483,1.111-0.485-1.171-0.11-1.876
							l0.707-0.169c1.923-4.266-2.179-0.432-2.939-1.2l2.107-2.681l-2.36,1.858c0.254-0.872,1.088-2.574,1.792-2.744
							c0.21-1.818-1.188,0.691-0.788-1.239c0.088-0.285,0.198-0.408,0.323-0.489l-1.15,0.485c0.495-0.532,1.121-2.111,1.26-1.46
							c0.004-0.565-0.35-0.876-0.679-0.949c-0.347-0.096-0.742,0.033-1.095,0.213c-0.701,0.325-1.227,0.638-0.979-0.641l0.188-0.15
							c-2.211,0.366-1.142,2.223-3.482,4.437c0,0,0.336-1.513,0.672-3.023c0.315-1.521,0.63-3.04,0.63-3.04l-1.038,2.26
							c-0.148-0.152-0.444-0.468-0.044-1.375c-1.25,1.337-0.251,1.06-1.177,2.42c-0.118-2.461-2.719,0.207-1.648-3.614
							c-0.911,1.687,0.365,1.653-0.978,2.593c1.082-4.121-1.299,0.339-1.478-1.773c0.923-2.007,1.322-0.65,1.13-2.778
							c-1.65,3.367-1.278-1.281-2.126-0.819c-0.973,2.789-1.793,0.692-3.207,1.254c0.218-0.464-0.208-0.987-0.624-1.639
							c-0.438-0.638-0.972-1.325-1.197-1.999l0.225-0.444c-1.362,2.66-2.109,1.748-3.082,1.995c0.824-1.58,1.266-2.158,1.966-2.731
							c0-0.001-0.619-0.241-0.619-0.267c-0.574,0.774-1,1.116-1.567,1.192l1.181-1.896c-0.851-0.327-2.918,1.396-3.263-0.49
							c-1.13,1.753-1.971,5.526-3.915,6.045c0.524-1,1.454-2.678,2-2.904c-0.178,0.077-0.839,0.6-0.802,0.06l1.433-1.354
							c-0.089-1.012-1.066,1.207-1.389,0.811c0.822-1.379,0.277-1.169,0.982-2.23c0.184-0.07,0.021,0.787,0.495,0.337
							c-0.313-0.524-0.386-1.679,0.052-2.833c-0.427,0.81-1.102,1.858-1.545,1.837c-0.931-0.423,0.688-1.839,0.605-2.85
							c-0.781,0.83-0.74-0.493-1.989,1.556c-0.248-0.163,0.281-1.15,0.52-1.767c-0.988,0.64-2.386-1.043-3.13,1.476l0.035,0.216
							c-0.048,0.029-0.074,0.016-0.131,0.046c0.004,0.002,0,0,0.004,0.002l-0.004-0.002c-1.371,0.58-1.986-0.171-2.537-1.081
							c-0.519-0.923-1.106-1.927-2.151-1.892l0.366-0.713c-1.396,0.323-2.445-0.616-3.836,0.618
							c-0.281-0.133-0.08-1.633,0.425-2.456c-0.986,0.233-1.42,1.028-1.97-0.646c1.298-0.97,0.229-1.253,1.171-0.616
							c-0.692-1.048-0.427-2.332-2.312-0.753c1.146-1.741,0.265-2.715-0.451-2.326l0.132,1.645
							c-0.632,0.055-1.029-0.284-1.434-0.635l1.266-2.408c-0.42-1.935-1.881-1.003-3.139-0.29c-1.26,0.699-2.347,1.224-2.21-1.65
							c-1.19,1.585,0.68,1.653-0.571,3.559c-0.805-0.673-0.521-4.688-0.831-4.808c-0.858-1.89-2.495,3.293-3.558,1.896
							c-0.113,0.973-0.755,3.471-2.028,4.025c-0.819-0.629,0.021-4.229,0.865-4.777c0.258-0.006,0.279,0.32,0.172,0.631
							c0.417-0.238,0.957-0.503,0.885-1.62l-0.417,0.88c-0.188-1.089-1.576-1.412-0.803-2.83c-1.015,0.65-0.769,1.42-0.367,2.068
							c-0.855-1.742-1.955-0.638-3.024-1.885c0.071,0.568-0.037,1.713-0.241,1.647c-1.609-1.664-1.312,1.544-2.689,1.616
							c-0.37-1.616,1.114-3.341-0.487-2.48c-0.578-1.146,0.419-2.53,0.938-3.217c-1.66,1.534-2.038-1.701-2.701-2.195l0.83-0.614
							c-0.498,0.364-0.818,0.278-1.149,0.201l-0.024,1.972c-0.313-0.412-0.639-0.493-0.469-1.276
							c-0.648,1.152-0.356,3.206-1.468,4.733c-0.307-1.085-1.707,0.738-1.409-1.808c1.433,1.135,0.298-2.565,1.745-2.718
							c-0.321,0.238-0.645,0.183-0.972-0.224c-0.006-0.291,0.153-0.511,0.288-0.638c-1.161-2.522-1.25,2.723-2.822,2.392
							c0.444-1.388,0.078-2.764-0.238-2.506c0.651,0.142-0.088,2.428-0.843,3.419c-0.839-1.282-1.228,0.632-1.712,0.442l0.507,0.604
							c-0.416,1.39-0.866,1.149-1.606,1.512c0.104-1.119,0.724-0.687,0.555-1.208c-1.107,2.416-1.329-2.814-2.62-1.257
							c-0.355-1.031,0.316-2.692-0.026-3.404c-0.36,0.427-0.604,0.508-0.791,0.409c-0.16-0.102-0.24-0.385-0.334-0.675
							c-0.182-0.581-0.339-1.2-0.938-0.531c-0.042,1.967,0.116,1.515-0.925,3.237l1.878-1.021c0,0-0.366,0.646-0.732,1.289
							c-0.384,0.644-0.768,1.285-0.768,1.285c0.545,0.128,1.255-0.981,1.574-0.606c-0.788,1.479-0.646,0.998-0.607,2.647
							c-0.183-1.516-0.59-1.165-1.062-0.704c-0.465,0.461-0.994,1.031-1.254-0.019l0.896-4.718
							c-0.386-1.164-0.996-0.651-1.729-0.041c-0.737,0.562-1.595,1.213-2.243,0.419l0.309,0.941
							c-0.696,1.791-1.075-0.007-1.811,0.603c0.486-1.531,0.319-2.176,0.388-3.19c-0.323,1.173-1.085-0.46-2.206,2.542l-0.052-2.247
							c-0.944-1.249-2.991,3.872-4.09,2.815c1.002-1.476,0.859-2.761,2.108-3.6c-0.395-0.179-0.645-0.598-1.057,0.438
							c0.146-1.027-1.936,1.547-1.737-0.018c-0.443,0.58-1.156,2.104-1.58,1.791c0.078-0.32,0.317-0.729,0.317-0.729
							c-0.315,0.74-1.174,0.673-1.472,2.484c0.351-2.601-0.561-2.927-1.519-3.176c-0.953-0.229-1.939-0.434-1.521-2.642
							c-1.138,0.013-2.462-0.07-3.343-0.417c0.279-0.396,0.38-0.703,0.457-0.472c-0.425-1.933-2.884,3.674-3.398,1.496
							c0.58-2.64,1.362-0.855,1.42-1.943c2.332-4.747-1.857-0.182-1.33-3.426l0.375-0.147c0.143-1.975-2.688,0.79-3.649-0.177
							c0,0,0.272-0.382,0.376-0.703c-0.509,0.486-1.008,0.852-1.49,1.123c-0.496,0.28-1.014,0.495-1.486,0.644
							c-0.959,0.304-1.828,0.382-2.569,0.477c1.199-1.737,0.995-0.769,1.61-2.786c-0.676,0.039-1.221,3.144-2.497,3.245
							c0.103-1.185-0.311-2.426,0.383-4.563l1.123,0.336c0.536-2.909-1.464-0.519-1.818-1.174l0.511-1.164
							c-1.775-0.165-2.841,2.847-4.446,2.067l-0.125,0.969c-1.875,2.709-0.228-1.95-1.843-0.011l0.658-3.162
							c-0.844,0.565-3.012,2.374-4.234,2.656c1.244-2.122,2.86-2.932,4.067-4.059c-0.604-0.194-2.147-0.359-2.89,1.076
							c0.326-0.229,0.851-0.897,0.957-0.354c-1.442,2.215-2.721,3.144-3.884,2.759c1.792-5.971-2.666-2.302-2.326-7.205
							c-2.692,1.688-3.792-1.982-6.227-2.233c-0.447,4.896-0.688-0.052-1.854,4.781c-0.62,0.15-0.806,0.013-0.765-0.311
							l-0.781-3.312c0.037-1.494,0.804-0.91,1.065-1.994c-1.014-0.687,0.124-2.154-0.221-3.628
							c-0.355,1.742-1.142,2.334-1.543,1.491c0,0,0.028,0.62,0.092,1.229c0.059,0.611,0.115,1.225,0.115,1.225
							c-2.382,2.062-0.017-4.399-2.296-2.396l0.961-1.321c-1.034,0.595-2.659-0.888-4.842,2.435c0.082-0.591,0.43-1.923,0.88-2.116
							c-0.738-0.654-2.098-0.093-3.381,0.255c-1.272,0.35-2.422,0.396-2.541-1.021l0.683-1.017
							c-0.472,0.157-1.606,1.749-1.443,0.466c0.257-0.434,0.694-1.009,0.582-1.145c-0.354,0.283-1.87,1.472-1.943,0.604l1.018-1.001
							c-0.783-2.3-4.11,1.417-6.017,1.257c1.924-2.999,1.287-4.848,0.984-5.748l0.304-0.405c-0.812-0.827-1.993-0.691-3.377-0.501
							c-1.369,0.214-2.865,0.621-4.188,0.537c0.585-1.968-0.163-3.011-1.142-3.957c-0.987-0.945-2.117-1.763-2.54-3.362
							c-0.063,0.744-1.654,2.245-2.211,2.297c-0.06-0.923-2.693,1.156-0.769-1.5l0.134,0.167c1.454-2.901,0.012-2.879-0.741-3.475
							l-2.492,3.502c0.666-3.266-1.094-3.688-2.688-3.905c-0.771-0.12-1.696-0.162-2.211-0.547c-0.542-0.38-0.787-1.089-0.502-2.517
							c-1.072,0.652-1.796,0.267-2.81,0.949l0.974-2.084c-0.714-0.689-1.222-1.074-1.856-1.434c-0.67-0.354-1.283-0.525-2.261-0.617
							l0.964-1.389c-0.944-0.531-3.678,5.681-4.618,5.45l1.017-3.293c-0.829-0.306-1.328-1.312-1.924-1.957
							c-0.282-0.321-0.6-0.552-1.017-0.562c-0.404-0.014-0.865,0.193-1.54,0.735c0.244-0.438,0.724-1.312,0.984-1.341
							c-0.681-0.397-0.813-3.062-3.067,1.071c0.778-1.323,0.586-1.539,0.002-1.335c-0.577,0.205-1.502,0.766-2.212,1.103
							l1.471-1.729c-2.188,1.978-2.72,2.516-3.934,2.548c0.062-0.371,1.13-1.429,0.916-0.84c0.392-1.285-1.872,1.143-1.599-0.292
							c0,0,0.322-0.188,0.646-0.376c0.316-0.193,0.635-0.387,0.635-0.387c-0.318-0.573-0.823-0.047-2.4,0.715
							c-1.043,0.202-0.424-1.535,1.247-2.729c-1.068,0.626-2.739,1.21-2.466,0.474c0.633-0.451,1.125-0.557,1.362-0.609
							c0.361-0.938-0.422-0.979-1.146-1.087c-0.697-0.123-1.314-0.297-0.507-1.181c0.673-0.334,0.987-0.543,1.162-0.701
							c0.192,0.462,0.347,0.891,0.429,1.206c0.093,0.298,0.12,0.476,0.028,0.485c1.818-1.024,1.827-1.735,4.63-2.651
							c-0.815,0.191-2.076,0.373-3.104,0.4c-1.025,0.021-1.793-0.168-1.461-0.699c0.174-0.109,0.345-0.218,0.633-0.361l0.244-0.021
							c0.133-0.229-0.102-0.288-0.48-0.29c0.233-0.334,0.419-0.551,0.364-0.756c1.549-0.68,0.701-0.958,0.693-1.268
							c-2.19,0.655-1.962,0.108-3.664,1.022c0.14-0.099,0.281-0.006,0.434,0.196c0.079,0.032,0.128,0.084,0.267,0.077
							c-0.06,0.011-0.129,0.022-0.198,0.036c0.127,0.208,0.224,0.479,0.428,0.827c-1.228,0.116-2.243,0.078-1.135-0.701
							c-1.454,0.244-2.976,0.415-3.698,0.457c2.872-1.431,4.441-2.707,6.341-3.143c-0.765-0.393-0.97-0.918-1.636-1.429
							c-0.621-0.503-1.562-0.976-3.726-1.442c-0.537-0.381,1.261-0.339,1.939-0.403c0.419,0.203,0.315,0.397,0.945,0.514
							c-0.541-0.309-0.59-0.754-0.91-1.187c-0.321-0.435-0.792-0.857-2.267-1.212c0.745-0.32,1.396-0.046,1.837,0.108
							c0.438,0.158,0.659,0.239,0.505-0.332l0.874,0.333c1.274-0.218,1.5-0.508,1.225-1.019c-0.218-0.491-0.978-1.197-1.572-1.974
							c-0.59-0.766-1.147-1.626-1.036-2.243c0.045-0.309,0.223-0.562,0.604-0.702c0.396-0.136,0.984-0.159,1.803-0.011
							c-0.413-0.056-0.61-0.069-1.054-0.312c1.983-0.562,2.463-2.161,3.365-3.784c0.884-1.602,2.075-3.074,4.913-2.805
							c1.389-0.133,0.146-1.585-0.384-3.108l1.892,1.585l-1.155-2.845c-0.155-1.312,1.415-0.8,2.97-0.631
							c0.777,0.056,1.549,0.035,2.037-0.308c0.498-0.42,0.712-1.047,0.266-2.262c0,0-0.404-0.125-0.81-0.251
							c-0.397-0.136-0.797-0.271-0.797-0.271c0.37-0.35,0.608-1.188,0.741-1.729c0.199-0.549,0.452-0.931,1.316-0.526
							c-0.253-0.212-1.537-0.88-0.634-0.938l1.229,0.378c0,0-0.071-0.188-0.252-0.469c-0.17-0.279-0.399-0.645-0.637-0.992
							c-0.215-0.35-0.542-0.68-0.748-0.922c-0.219-0.238-0.364-0.397-0.364-0.397c0.368-0.706,1.629-0.47,2.854-0.33
							c0.604,0.068,1.185,0.109,1.613-0.057c0.437-0.167,0.731-0.55,0.614-1.269c-0.193-0.276-0.563-0.62-1.07-0.94
							c-0.527-0.313-1.159-0.612-1.791-0.843c-1.268-0.467-2.527-0.654-2.919-0.474c0.1,0.33-0.425,0.839-1.786,0.865
							c0,0-0.282-0.144-0.562-0.287c-0.283-0.135-0.566-0.27-0.566-0.27c-0.829,0.024-1.715,0.052-2.556,0.077
							c-0.765,0.021-1.502,0.044-2.214,0.133c-1.418,0.166-2.604,0.383-3.603,0.556c0,0,0.541,0.066,1.104,0.188
							c0.561,0.112,1.149,0.275,1.149,0.275s-0.399-0.007-0.801-0.014c-0.407-0.018-0.815-0.035-0.815-0.035
							c0.014-0.008-0.237-0.27-0.237-0.271c-1.453,0.033-0.076,0.162,0.95,0.461c-0.892-0.098-1.505-0.158-1.836-0.173
							c0,0,0.854,0.206,1.723,0.498c0.879,0.282,1.719,0.653,1.719,0.653c-1.4-0.354-2.771-0.862-3.55-0.901
							c0.79,0.288,1.573,0.512,2.291,0.684c0.716,0.183,1.366,0.323,1.875,0.722c-1.688-0.242-2.948-0.87-1.661-0.084
							c-0.915-0.338-1.457-0.624-1.846-0.839c0.528,0.282,0.587,0.442,0.755,0.646c0.17,0.159,0.47,0.277,1.323,0.829
							c-0.895-0.525-0.914-0.309-1.021-0.213c-0.109,0.096-0.457,0.132-1.824-1.018c0.311,0.298,0.78,0.834,1.147,1.362
							c0.331,0.549,0.549,1.089,0.474,1.284c-1.366-1.692-1.607-1.501-1.987-1.255c-0.394,0.257-0.86,0.537-2.42-1.16
							c2.3,3.151-0.459,2.832,0.043,5.308c-0.159-0.271-0.484-0.818-0.266-0.756c-0.746,0.269-1.726-0.397-2.593-0.57
							c2.152,2.342,1.795,3.717,2.733,5.565c-2.875-1.468-2.249-3.04-4.555-4.909c1.866,1.771,0.603,3.066,2.397,4.312
							c-1.91-0.746-1.124-0.153-3.342-1.648c2.841,2.788-0.023,1.035,1.363,3.157c-2.253-0.409-3.04-2.2-2.98-0.369
							c-0.682-0.129-1.105-0.648-1.35-1.15C1045.438,856.618,1045.373,856.141,1045.373,856.141z M1046.128,890.531
							c-0.02,0.008-0.034,0.015-0.042,0.018c-0.147-0.224-0.273-0.414-0.354-0.536
							C1045.809,890.123,1045.92,890.275,1046.128,890.531z M1047.222,892.812c-0.053-0.317-0.202-0.668-0.391-1.024
							c0.679-0.413,1.455-0.67,1.521-0.435C1047.819,891.457,1047.654,892.172,1047.222,892.812z M1060.175,882.884
							c0.343,0.081-0.044,0.3-0.472,0.486c-0.093-0.094-0.179-0.173-0.366-0.271c-0.074,0.018-0.192,0.044-0.271,0.062
							C1059.485,883.047,1059.879,882.942,1060.175,882.884z"/>
						<path fill="#F4EBD8" d="M1057.219,883.406c-0.056-0.02-0.154-0.01-0.186-0.048c-0.18,0.104-0.332,0.198-0.454,0.286
							c0.241-0.043,0.485-0.086,0.707-0.125C1057.262,883.482,1057.245,883.44,1057.219,883.406z"/>
						<path fill="#F4EBD8" d="M1223.765,962.944l-0.014-0.067c-0.013,0.098-0.027,0.192-0.081,0.329
							C1223.7,963.095,1223.736,963.033,1223.765,962.944z"/>
						<polygon fill="#F4EBD8" points="1071.533,915.623 1071.792,915.109 1071.438,915.492 						"/>
						<path fill="#F4EBD8" d="M1230.364,975.675c-0.063,0.19-0.107,0.398-0.093,0.597
							C1230.329,976.132,1230.35,975.914,1230.364,975.675z"/>
						<path fill="#F4EBD8" d="M1235.321,978.231l0.438,1.008C1235.605,978.698,1235.456,978.415,1235.321,978.231z"/>
						<path fill="#F4EBD8" d="M1238.812,980.608c0.168-0.366,0.274-0.649,0.371-0.908c0-0.008-0.002-0.009-0.001-0.02
							L1238.812,980.608z"/>
						<path fill="#F4EBD8" d="M1181.913,961.049c-0.053,0.006-0.106,0.028-0.16,0.084
							C1181.35,961.528,1181.605,961.384,1181.913,961.049z"/>
						<path fill="#F4EBD8" d="M1200.075,959.924c-0.312,0.337-0.617,0.669-0.884,0.855
							C1199.438,961.039,1199.657,961.154,1200.075,959.924z"/>
						<path fill="#F4EBD8" d="M1158.827,958.075c0.009-0.021,0.007-0.015,0.018-0.036c-0.051-0.012-0.09-0.036-0.137-0.056
							L1158.827,958.075z"/>
						<path fill="#F4EBD8" d="M1198.414,960.497c0.165,0.527,0.443,0.512,0.777,0.282
							C1198.991,960.558,1198.77,960.244,1198.414,960.497z"/>
						<path fill="#F4EBD8" d="M1252.383,987.888l0.113,0.179c0.074-0.132,0.146-0.23,0.207-0.305L1252.383,987.888z"/>
						<path fill="#F4EBD8" d="M1252.703,987.762l0.316-0.124C1252.938,987.588,1252.858,987.561,1252.703,987.762z"/>
						<path fill="#F4EBD8" d="M1253.693,987.369l-0.674,0.269C1253.148,987.721,1253.273,987.878,1253.693,987.369z"/>
						<path fill="#F4EBD8" d="M1248.484,984.33l-0.478,0.683C1248.124,984.881,1248.278,984.663,1248.484,984.33z"/>
						<path fill="#F4EBD8" d="M1247.299,983.902c0.041,0.134-0.068,0.583-0.152,0.944c0.018,0.422,0.13,0.797,0.482,0.705
							l0.379-0.54c-0.421,0.467-0.415-0.107-0.431-0.673C1247.611,983.806,1247.725,983.344,1247.299,983.902z"/>
						<path fill="#F4EBD8" d="M1245.403,972.229l1.057,1.053c0.068-0.915,0.152-2.144,0.819-2.129
							C1246.509,968.104,1246.96,973.119,1245.403,972.229z"/>
						<path fill="#F4EBD8" d="M1241.868,969.713c0.768-0.174,0.387-1.222,0.577-1.686
							C1241.796,968.657,1241.629,968.816,1241.868,969.713z"/>
						<path fill="#F4EBD8" d="M1215.979,956.823l0.9-1.877C1216.239,954.996,1216.553,955.683,1215.979,956.823z"/>
						<polygon fill="#F4EBD8" points="1206.64,964.568 1206.633,965.953 1207.571,964.274 						"/>
						<polygon fill="#F4EBD8" points="1208.824,949.521 1209.166,949.331 1207.988,949.708 						"/>
						<path fill="#F4EBD8" d="M1161.812,937.403l-0.997,2.366C1161.33,939.503,1162.657,936.958,1161.812,937.403z"/>
						<path fill="#F4EBD8" d="M1140.604,930.234c0.168-1.294-0.212-2.288-0.97-1.216
							C1140.076,929.354,1140.254,930.465,1140.604,930.234z"/>
						<polygon fill="#F4EBD8" points="1086.6,900.664 1087.475,900.2 1086.312,900.315 						"/>
					</g>
				</g>
			</g>
		</g>
	</g>
</g>
<g id="Foreground_Church">
	<g id="XMLID_35_">
		<g>
			<polygon fill="#F2E7D0" points="1729.432,423.452 1729.432,435.613 1721.296,436.613 1721.622,424.803 1714.708,425.708 
				1714.49,425.708 1714.49,419.398 1714.49,418.938 1714.49,418.56 1721.282,417.425 1721.282,405.885 1728.916,404.534 
				1729.432,404.534 1729.432,415.344 1738.858,413.587 1738.939,413.993 1738.939,422.101 			"/>
		</g>
		<g>
			
				<line fill="none" stroke="#FFFEF7" stroke-width="1.3548" stroke-miterlimit="10" x1="1721.296" y1="436.613" x2="1721.622" y2="424.803"/>
			
				<line fill="none" stroke="#FFFEF7" stroke-width="1.3548" stroke-miterlimit="10" x1="1721.622" y1="424.803" x2="1714.708" y2="425.708"/>
			<polyline fill="none" stroke="#FFFEF7" stroke-width="1.3548" stroke-miterlimit="10" points="1714.49,426.154 1714.49,425.708 
				1714.49,419.398 			"/>
			<polyline fill="none" stroke="#FFFEF7" stroke-width="1.3548" stroke-miterlimit="10" points="1714.49,418.56 1721.282,417.425 
				1721.622,417.371 			"/>
			<polyline fill="none" stroke="#FFFEF7" stroke-width="1.3548" stroke-miterlimit="10" points="1721.282,418.047 
				1721.282,417.425 1721.282,405.885 			"/>
			
				<line fill="none" stroke="#FFFEF7" stroke-width="1.3548" stroke-miterlimit="10" x1="1721.282" y1="405.885" x2="1728.916" y2="404.534"/>
			
				<line fill="none" stroke="#FFFEF7" stroke-width="1.3548" stroke-miterlimit="10" x1="1729.432" y1="404.534" x2="1729.432" y2="415.344"/>
			<polyline fill="none" stroke="#FFFEF7" stroke-width="1.3548" stroke-miterlimit="10" points="1729.432,415.344 
				1738.858,413.587 1739.456,413.479 			"/>
			<polyline fill="none" stroke="#FFFEF7" stroke-width="1.3548" stroke-miterlimit="10" points="1738.939,413.993 
				1738.939,422.101 1738.939,423.452 			"/>
			
				<line fill="none" stroke="#FFFEF7" stroke-width="1.3548" stroke-miterlimit="10" x1="1738.939" y1="422.101" x2="1729.432" y2="423.452"/>
			
				<line fill="none" stroke="#FFFEF7" stroke-width="1.3548" stroke-miterlimit="10" x1="1729.432" y1="423.452" x2="1729.432" y2="435.613"/>
			
				<line fill="none" stroke="#FFFEF7" stroke-width="1.3548" stroke-miterlimit="10" x1="1721.296" y1="436.613" x2="1729.432" y2="435.613"/>
		</g>
	</g>
	<g id="XMLID_36_">
		<g>
			<polygon fill="#E4DCCC" points="1832.66,638.977 1832.66,639.193 1832.66,639.652 1832.66,645.058 1494.45,721.998 
				1494.45,707.62 1823.696,638.328 1823.832,638.977 			"/>
		</g>
		<g>
			<polyline fill="none" stroke="#CFC3B4" stroke-width="1.3548" stroke-miterlimit="10" points="1832.66,645.058 1494.45,721.998 
				1494.11,722.079 			"/>
			<polyline fill="none" stroke="#CFC3B4" stroke-width="1.3548" stroke-miterlimit="10" points="1494.45,722.079 1494.45,721.998 
				1494.45,707.62 1494.45,707.215 			"/>
		</g>
	</g>
	<g id="XMLID_37_">
		<g>
			<polygon fill="#DAD4C6" points="1832.66,645.058 1833.34,655.354 1497.846,730.188 1497.846,720.729 1497.846,720.269 
				1497.846,720.052 			"/>
		</g>
		<g>
			
				<line fill="none" stroke="#CFC3B4" stroke-width="1.3548" stroke-miterlimit="10" x1="1497.846" y1="720.729" x2="1497.846" y2="730.188"/>
			
				<line fill="none" stroke="#CFC3B4" stroke-width="1.3548" stroke-miterlimit="10" x1="1497.846" y1="730.188" x2="1833.34" y2="655.354"/>
			
				<line fill="none" stroke="#CFC3B4" stroke-width="1.3548" stroke-miterlimit="10" x1="1833.34" y1="655.354" x2="1832.66" y2="645.058"/>
		</g>
	</g>
	<g id="XMLID_38_">
		<g>
			<polygon fill="#E9DECB" points="1501.323,729.416 1830.637,655.962 1828.586,736.942 1509.73,849.543 			"/>
		</g>
	</g>
	<g id="XMLID_39_">
		<g>
			<path fill="#F3E9DC" d="M1577.984,736.942v72.968l-31.24,10.647v-75.347h-0.462c-1.358-30.795,30.344-28.984,32.149-8.27
				L1577.984,736.942L1577.984,736.942z"/>
		</g>
	</g>
	<g id="XMLID_40_">
		<g>
			<path fill="#F3E9DC" d="M1616.46,729.655c-1.358-27.154,30.344-25.559,32.15-7.292h-0.448v64.339l-31.24,9.389v-66.436H1616.46z"
				/>
		</g>
	</g>
	<g id="XMLID_41_">
		<g>
			<path fill="#F3E9DC" d="M1687.535,710.998c-1.257-24.211,28.08-22.788,29.752-6.501h-0.415v57.369l-28.909,8.371v-59.239
				H1687.535z"/>
		</g>
	</g>
	<g id="XMLID_42_">
		<g>
			<path fill="#F3E9DC" d="M1752.544,695.045c-1.116-22.41,24.933-21.093,26.417-6.019h-0.368v53.101l-25.67,7.749v-54.831H1752.544
				L1752.544,695.045z"/>
		</g>
	</g>
	<g id="XMLID_43_">
		<g>
			<path fill="#F3E9DC" d="M1818.24,680.666v45.344l-20.528,6.617v-46.822h-0.304c-0.893-19.137,19.938-18.012,21.127-5.139H1818.24
				z"/>
		</g>
	</g>
	<g id="XMLID_44_">
		<g>
			<path fill="#AAC2C1" d="M1546.744,814.682v-71.351h-0.462c0.91-19.295,21.284-15.526,21.731-5.18h0.463v68.695L1546.744,814.682z
				"/>
		</g>
	</g>
	<g id="XMLID_45_">
		<g>
			<path fill="#AAC2C1" d="M1617.355,792.618v-64.866h-0.442c0.873-17.534,20.416-14.109,20.846-4.707h0.442v62.429
				L1617.355,792.618z"/>
		</g>
	</g>
	<g id="XMLID_46_">
		<g>
			<path fill="#AAC2C1" d="M1707.918,707.328v54.412l-19.953,6.204V711.43h-0.424c0.835-15.281,19.541-12.298,19.953-4.103
				L1707.918,707.328L1707.918,707.328z"/>
		</g>
	</g>
	<g id="XMLID_47_">
		<g>
			<path fill="#AAC2C1" d="M1771.762,692.334v45.734l-18.745,5.215v-47.501h-0.397c0.785-12.847,18.357-10.336,18.745-3.448
				H1771.762L1771.762,692.334z"/>
		</g>
	</g>
	<g id="XMLID_48_">
		<g>
			<path fill="#AAC2C1" d="M1809.913,683.035v43.208l-12.178,4.936v-44.886h-0.251c0.502-12.136,11.919-9.766,12.17-3.258H1809.913z
				"/>
		</g>
	</g>
	<g id="XMLID_49_">
		<g>
			<polygon fill="#E8E1D6" points="1509.392,861.258 1509.392,849.543 1509.73,849.543 1828.586,736.942 1828.775,729.362 
				1859.146,732.727 1509.73,861.258 			"/>
		</g>
	</g>
	<g id="XMLID_50_">
		<g>
			<polygon fill="#DFD5C3" points="1511.985,972.412 1509.73,861.258 1859.146,732.889 1859.146,818.018 			"/>
		</g>
	</g>
	<g id="Church_door_top">
		<g>
			<path fill="#F2E6CC" d="M1269.656,687.189l191.517,26.078l-9.59,86.847l-22.669-1.015c1.697-78.034-56.029-66.888-60.443-84.684
				c-1.697,17.796-66.556-8.553-76.062,74.549l-22.751-2.702L1269.656,687.189L1269.656,687.189z"/>
		</g>
		<g>
			<polyline fill="none" stroke="#FFFEF7" stroke-width="2.7095" stroke-miterlimit="10" points="1267.85,686.946 1269.656,687.189 
				1461.173,713.269 			"/>
			<path fill="none" stroke="#FFFEF7" stroke-width="2.7095" stroke-miterlimit="10" d="M1368.471,714.417
				c-1.697,17.796-66.556-8.553-76.062,74.549"/>
			<path fill="none" stroke="#FFFEF7" stroke-width="2.7095" stroke-miterlimit="10" d="M1368.471,714.417
				c4.414,17.796,62.142,6.648,60.443,84.684"/>
			
				<line fill="none" stroke="#FFFEF7" stroke-width="2.7095" stroke-miterlimit="10" x1="1292.407" y1="788.966" x2="1269.656" y2="786.264"/>
			<polyline fill="none" stroke="#FFFEF7" stroke-width="2.7095" stroke-miterlimit="10" points="1269.656,786.939 
				1269.656,786.264 1269.656,687.189 1269.656,686.946 			"/>
			
				<line fill="none" stroke="#FFFEF7" stroke-width="2.7095" stroke-miterlimit="10" x1="1428.914" y1="799.101" x2="1451.583" y2="800.114"/>
			
				<line fill="none" stroke="#FFFEF7" stroke-width="2.7095" stroke-miterlimit="10" x1="1451.583" y1="800.114" x2="1461.173" y2="713.269"/>
		</g>
	</g>
	<g id="Church_door_top_1_" opacity="0.2">
		<g>
			
				<linearGradient id="SVGID_3_" gradientUnits="userSpaceOnUse" x1="1269.6572" y1="337.3472" x2="1461.1738" y2="337.3472" gradientTransform="matrix(1 0 0 -1 0 1081)">
				<stop  offset="0" style="stop-color:#000000"/>
				<stop  offset="0.0074" style="stop-color:#090909"/>
				<stop  offset="0.0477" style="stop-color:#373737"/>
				<stop  offset="0.0931" style="stop-color:#626262"/>
				<stop  offset="0.1419" style="stop-color:#888888"/>
				<stop  offset="0.195" style="stop-color:#A8A8A8"/>
				<stop  offset="0.2537" style="stop-color:#C4C4C4"/>
				<stop  offset="0.32" style="stop-color:#DADADA"/>
				<stop  offset="0.3974" style="stop-color:#EBEBEB"/>
				<stop  offset="0.4931" style="stop-color:#F6F6F6"/>
				<stop  offset="0.6274" style="stop-color:#FDFDFD"/>
				<stop  offset="1" style="stop-color:#FFFFFF"/>
			</linearGradient>
			<path fill="url(#SVGID_3_)" d="M1428.914,799.101c1.697-78.034-56.029-66.888-60.443-84.684
				c-1.697,17.796-66.556-8.553-76.062,74.549l-22.751-2.702V687.19l191.517,26.078l-9.59,86.847L1428.914,799.101z"/>
		</g>
		<g>
			<polyline fill="none" stroke="#FFFEF7" stroke-width="2.7095" stroke-miterlimit="10" points="1267.85,686.946 1269.656,687.189 
				1461.173,713.269 			"/>
			<path fill="none" stroke="#FFFEF7" stroke-width="2.7095" stroke-miterlimit="10" d="M1368.471,714.417
				c-1.697,17.796-66.556-8.553-76.062,74.549"/>
			<path fill="none" stroke="#FFFEF7" stroke-width="2.7095" stroke-miterlimit="10" d="M1368.471,714.417
				c4.414,17.796,62.142,6.648,60.443,84.684"/>
			
				<line fill="none" stroke="#FFFEF7" stroke-width="2.7095" stroke-miterlimit="10" x1="1292.407" y1="788.966" x2="1269.656" y2="786.264"/>
			<polyline fill="none" stroke="#FFFEF7" stroke-width="2.7095" stroke-miterlimit="10" points="1269.656,786.939 
				1269.656,786.264 1269.656,687.189 1269.656,686.946 			"/>
			
				<line fill="none" stroke="#FFFEF7" stroke-width="2.7095" stroke-miterlimit="10" x1="1428.914" y1="799.101" x2="1451.583" y2="800.114"/>
			
				<line fill="none" stroke="#FFFEF7" stroke-width="2.7095" stroke-miterlimit="10" x1="1451.583" y1="800.114" x2="1461.173" y2="713.269"/>
		</g>
	</g>
	<g id="Balcony">
		<g>
			<path fill="#ECDCC4" d="M1461.2,673.19l-0.272,31.699l-29.678-3.323l0.258-31.7L1461.2,673.19z M1446.001,681.42
				c-6.9-8.324-13.461,0.662-6.059,6.026c-6.507,5.688,1.508,12.499,6.059,6.025c6.506,7.812,13.012-1.485,5.84-6.025
				C1458.116,682.082,1451.162,675.582,1446.001,681.42z"/>
			<path fill="#ECDCC4" d="M1439.942,687.446c-7.402-5.364-0.843-14.352,6.059-6.026c5.161-5.838,12.115,0.662,5.84,6.026
				c7.172,4.54,0.666,13.837-5.84,6.025C1441.45,699.945,1433.438,693.135,1439.942,687.446z"/>
			<path fill="#ECDCC4" d="M1409.327,688.067c6.506,7.811,13.026-1.486,5.841-6.026c6.275-5.364-0.68-11.851-5.841-6.026
				c-6.9-8.322-13.46,0.662-6.058,6.026C1396.764,687.73,1404.777,694.54,1409.327,688.067z M1424.526,667.785l-0.271,31.701
				l-29.679-3.324l0.259-31.7L1424.526,667.785z"/>
			<path fill="#ECDCC4" d="M1463.55,708.904l-69.422-9.526l0.448-3.216l29.679,3.324l0.271-31.701l0.447-3.405l38.914,5
				L1463.55,708.904z M1460.928,704.891l0.272-31.699l-29.692-3.324l-0.258,31.7L1460.928,704.891z"/>
			<path fill="#ECDCC4" d="M1409.327,676.015c5.161-5.823,12.116,0.662,5.841,6.026c7.186,4.54,0.665,13.837-5.841,6.026
				c-4.55,6.473-12.563-0.337-6.058-6.026C1395.867,676.677,1402.427,667.691,1409.327,676.015z"/>
			<path fill="#ECDCC4" d="M1366.596,677.987c-6.506,5.688,1.508,12.499,6.06,6.025c6.506,7.812,13.024-1.473,5.84-6.025
				c6.274-5.364-0.679-11.852-5.84-6.026C1365.754,663.637,1359.193,672.623,1366.596,677.987z M1358.324,691.743l0.258-31.281
				l29.312,3.271l-0.271,31.295L1358.324,691.743z"/>
			<path fill="#ECDCC4" d="M1366.596,677.987c-7.401-5.364-0.842-14.352,6.06-6.026c5.161-5.824,12.114,0.662,5.84,6.026
				c7.186,4.554,0.666,13.837-5.84,6.025C1368.104,690.486,1360.09,683.676,1366.596,677.987z"/>
			<path fill="#ECDCC4" d="M1330.67,672.988c-7.254-5.555-0.448-14.378,6.221-5.865c5.324-5.688,12.104,0.986,5.664,6.176
				c7.062,4.743,0.299,13.863-5.99,5.878C1331.838,685.527,1324.014,678.501,1330.67,672.988z"/>
			<path fill="#ECDCC4" d="M1321.352,686.055l0.938-30.701l28.687,3.853l-0.937,30.7L1321.352,686.055z M1330.67,672.988
				c-6.656,5.513,1.168,12.539,5.896,6.188c6.288,7.985,13.053-1.135,5.989-5.878c6.438-5.188-0.34-11.864-5.664-6.176
				C1330.222,658.61,1323.416,667.435,1330.67,672.988z"/>
			<path fill="#ECDCC4" d="M1300.787,662.34c5.325-5.525,12.049,1.027,5.624,6.055c7.021,4.661,0.244,13.513-5.99,5.701
				c-4.74,6.162-12.51-0.716-5.854-6.066C1287.354,662.569,1294.173,654.017,1300.787,662.34z"/>
			<path fill="#ECDCC4" d="M1285.901,650.854l28.821,3.717l-0.814,30.174l-28.822-3.717L1285.901,650.854z M1300.421,674.096
				c6.234,7.812,13.013-1.04,5.99-5.702c6.425-5.025-0.299-11.579-5.624-6.054c-6.614-8.323-13.434,0.229-6.221,5.688
				C1287.911,673.38,1295.681,680.258,1300.421,674.096z"/>
			<polygon fill="#ECDCC4" points="1394.128,699.378 1463.55,708.904 1461.173,713.269 1269.656,686.946 1269.656,682.893 
				1269.737,682.298 			"/>
			<path fill="#ECDCC4" d="M1313.908,684.744l0.814-30.174l-28.822-3.717l-0.814,30.174L1313.908,684.744z M1322.289,655.354
				l-0.938,30.701l28.688,3.852l0.937-30.7L1322.289,655.354z M1358.582,660.462l-0.258,31.281l29.298,3.283l0.271-31.295
				L1358.582,660.462z M1394.128,699.378l-124.391-17.08l-5.516-0.757v-3.311l14.97,1.676l0.258-31.281l-15.228-1.703v-3.216
				l160.752,20.674l-0.447,3.405l-29.691-3.323l-0.259,31.7L1394.128,699.378z"/>
			<path fill="#ECDCC4" d="M1264.223,646.922l15.228,1.703l-0.258,31.281l-14.97-1.676v-10.121c0.068-0.081,0.122-0.148,0.178-0.229
				c6.506,7.812,13.013-1.486,5.826-6.026c6.289-5.363-0.666-11.863-5.826-6.039c-0.056-0.067-0.108-0.136-0.178-0.203V646.922z"/>
			<path fill="#ECDCC4" d="M1270.227,661.854c7.187,4.54,0.68,13.838-5.826,6.026c-0.056,0.081-0.108,0.148-0.178,0.229V655.61
				c0.068,0.067,0.122,0.136,0.178,0.202C1269.561,649.989,1276.516,656.489,1270.227,661.854z"/>
		</g>
		<g>
			<path fill="none" stroke="#C6BBB3" stroke-width="3.2059" stroke-miterlimit="10" d="M1330.67,672.988
				c-7.254-5.555-0.448-14.378,6.221-5.865"/>
			<path fill="none" stroke="#C6BBB3" stroke-width="3.2059" stroke-miterlimit="10" d="M1330.67,672.988
				c-6.656,5.513,1.168,12.539,5.896,6.188"/>
			<path fill="none" stroke="#C6BBB3" stroke-width="3.2059" stroke-miterlimit="10" d="M1336.564,679.177
				c6.288,7.985,13.053-1.135,5.989-5.878"/>
			<path fill="none" stroke="#C6BBB3" stroke-width="3.2059" stroke-miterlimit="10" d="M1342.555,673.299
				c6.438-5.188-0.34-11.864-5.664-6.176"/>
			<path fill="none" stroke="#C6BBB3" stroke-width="3.2059" stroke-miterlimit="10" d="M1294.566,668.028
				c-7.213-5.459-0.395-14.013,6.221-5.688"/>
			<path fill="none" stroke="#C6BBB3" stroke-width="3.2059" stroke-miterlimit="10" d="M1294.566,668.028
				c-6.655,5.352,1.113,12.229,5.854,6.066"/>
			<path fill="none" stroke="#C6BBB3" stroke-width="3.2059" stroke-miterlimit="10" d="M1300.421,674.096
				c6.234,7.812,13.013-1.04,5.99-5.702"/>
			<path fill="none" stroke="#C6BBB3" stroke-width="3.2059" stroke-miterlimit="10" d="M1306.411,668.394
				c6.425-5.025-0.299-11.579-5.624-6.054"/>
			<path fill="none" stroke="#C6BBB3" stroke-width="3.2059" stroke-miterlimit="10" d="M1366.596,677.987
				c-7.401-5.364-0.842-14.352,6.06-6.026"/>
			<path fill="none" stroke="#C6BBB3" stroke-width="3.2059" stroke-miterlimit="10" d="M1366.596,677.987
				c-6.506,5.688,1.508,12.499,6.06,6.025"/>
			<path fill="none" stroke="#C6BBB3" stroke-width="3.2059" stroke-miterlimit="10" d="M1372.654,684.014
				c6.506,7.812,13.024-1.473,5.84-6.025"/>
			<path fill="none" stroke="#C6BBB3" stroke-width="3.2059" stroke-miterlimit="10" d="M1378.494,677.987
				c6.275-5.364-0.679-11.852-5.84-6.026"/>
			<path fill="none" stroke="#C6BBB3" stroke-width="3.2059" stroke-miterlimit="10" d="M1403.27,682.041
				c-7.401-5.364-0.843-14.35,6.059-6.026"/>
			<path fill="none" stroke="#C6BBB3" stroke-width="3.2059" stroke-miterlimit="10" d="M1403.27,682.041
				c-6.506,5.689,1.509,12.499,6.059,6.026"/>
			<path fill="none" stroke="#C6BBB3" stroke-width="3.2059" stroke-miterlimit="10" d="M1409.327,688.067
				c6.506,7.811,13.026-1.486,5.841-6.026"/>
			<path fill="none" stroke="#C6BBB3" stroke-width="3.2059" stroke-miterlimit="10" d="M1415.168,682.041
				c6.275-5.364-0.68-11.851-5.841-6.026"/>
			<path fill="none" stroke="#C6BBB3" stroke-width="3.2059" stroke-miterlimit="10" d="M1439.942,687.446
				c-7.402-5.364-0.843-14.352,6.059-6.026"/>
			<path fill="none" stroke="#C6BBB3" stroke-width="3.2059" stroke-miterlimit="10" d="M1439.942,687.446
				c-6.507,5.688,1.508,12.499,6.059,6.025"/>
			<path fill="none" stroke="#C6BBB3" stroke-width="3.2059" stroke-miterlimit="10" d="M1446.001,693.473
				c6.506,7.812,13.012-1.485,5.84-6.025"/>
			<path fill="none" stroke="#C6BBB3" stroke-width="3.2059" stroke-miterlimit="10" d="M1451.841,687.446
				c6.275-5.364-0.679-11.864-5.84-6.026"/>
			<path fill="none" stroke="#C6BBB3" stroke-width="3.2059" stroke-miterlimit="10" d="M1258.342,661.854
				c-7.349-5.323-0.951-14.215,5.881-6.242c0.068,0.067,0.122,0.136,0.178,0.203"/>
			<path fill="none" stroke="#C6BBB3" stroke-width="3.2059" stroke-miterlimit="10" d="M1258.342,661.854
				c-6.425,5.621,1.317,12.338,5.881,6.257c0.068-0.081,0.122-0.148,0.178-0.229"/>
			<path fill="none" stroke="#C6BBB3" stroke-width="3.2059" stroke-miterlimit="10" d="M1264.399,667.88
				c6.506,7.812,13.013-1.486,5.827-6.026"/>
			<path fill="none" stroke="#C6BBB3" stroke-width="3.2059" stroke-miterlimit="10" d="M1270.227,661.854
				c6.289-5.363-0.666-11.863-5.826-6.039"/>
			<polygon fill="none" stroke="#C6BBB3" stroke-width="2.4568" stroke-miterlimit="10" points="1460.928,704.891 1431.25,701.566 
				1431.508,669.866 1461.2,673.19 			"/>
			<polygon fill="none" stroke="#C6BBB3" stroke-width="2.4568" stroke-miterlimit="10" points="1424.526,667.785 1424.255,699.486 
				1394.576,696.162 1394.835,664.462 			"/>
			<polygon fill="none" stroke="#C6BBB3" stroke-width="2.3992" stroke-miterlimit="10" points="1313.908,684.744 1285.086,681.027 
				1285.901,650.854 1314.724,654.57 			"/>
			<polygon fill="none" stroke="#C6BBB3" stroke-width="2.3805" stroke-miterlimit="10" points="1350.039,689.905 1321.352,686.055 
				1322.289,655.354 1350.976,659.205 			"/>
			<polygon fill="none" stroke="#C6BBB3" stroke-width="2.4255" stroke-miterlimit="10" points="1387.622,695.026 1358.324,691.743 
				1358.582,660.462 1387.895,663.731 			"/>
			<polygon fill="none" stroke="#C6BBB3" stroke-width="2.4255" stroke-miterlimit="10" points="1264.223,646.922 1279.449,648.625 
				1279.191,679.906 1264.223,678.23 1249.895,676.623 1250.151,645.341 			"/>
			<polyline fill="none" stroke="#FFFEF7" stroke-width="2.7095" stroke-miterlimit="10" points="1463.889,669.38 1424.975,664.38 
				1264.223,643.706 			"/>
			<polyline fill="none" stroke="#FFFEF7" stroke-width="2.7095" stroke-miterlimit="10" points="1264.223,643.706 
				1264.223,646.922 1264.223,655.61 1264.223,668.109 1264.223,678.23 1264.223,681.541 			"/>
			<polyline fill="none" stroke="#FFFEF7" stroke-width="2.7095" stroke-miterlimit="10" points="1264.223,681.541 
				1269.737,682.298 1394.128,699.378 1463.55,708.904 			"/>
			
				<line fill="none" stroke="#FFFEF7" stroke-width="2.7095" stroke-miterlimit="10" x1="1461.173" y1="713.269" x2="1463.55" y2="708.904"/>
			
				<line fill="none" stroke="#FFFEF7" stroke-width="2.7095" stroke-miterlimit="10" x1="1461.173" y1="713.269" x2="1269.656" y2="686.946"/>
			
				<line fill="none" stroke="#FFFEF7" stroke-width="2.7095" stroke-miterlimit="10" x1="1269.656" y1="686.946" x2="1269.656" y2="682.893"/>
			
				<line fill="none" stroke="#FFFEF7" stroke-width="2.7095" stroke-miterlimit="10" x1="1463.889" y1="669.38" x2="1463.55" y2="708.904"/>
		</g>
	</g>
	<g id="Church_Roof_Triangle">
		<g id="Back">
			<g>
				<path fill="#F0E3CF" d="M1272.726,644.801c25.454-38.482,100.377-219.092,100.377-219.092
					c12.917,52.699,97.918,245.186,97.918,245.186L1272.726,644.801z"/>
			</g>
			<g>
				<path fill="none" stroke="#FFFEF7" stroke-width="2.7095" stroke-miterlimit="10" d="M1272.726,644.801
					c25.454-38.482,100.377-219.092,100.377-219.092"/>
				<path fill="none" stroke="#FFFEF7" stroke-width="2.7095" stroke-miterlimit="10" d="M1373.104,425.708
					c12.916,52.699,97.918,245.185,97.918,245.185"/>
				
					<line fill="none" stroke="#FFFEF7" stroke-width="2.7095" stroke-miterlimit="10" x1="1471.021" y1="670.894" x2="1272.726" y2="644.801"/>
			</g>
		</g>
		<g id="Details_1">
			<path fill="#C8C5B6" d="M1377.561,441.044c-40.332,106.725-87.192,205.367-87.192,205.367"/>
			<g id="Window_L_2_">
				<g>
					<path fill="#BEB1A6" d="M1341.061,593.034c9.752,2.364,6.356,14.188,6.018,57.819l-21.053-3.095
						C1329.176,608.506,1324.326,592.696,1341.061,593.034z"/>
				</g>
			</g>
			<g id="Window_C_1_">
				<g>
					<path fill="#BEB1A6" d="M1377.558,493.717c22.452,18.58,11.966,56.753,10.337,161.637l-29.569-3.539
						C1362.901,576.171,1353.189,507.567,1377.558,493.717z"/>
				</g>
			</g>
			<g id="Window_R_2_">
				<g>
					<path fill="#BEB1A6" d="M1416.01,593.034c10.526,9.797,11.206,16.094,8.518,67.428l-22.101-2.771
						C1404.465,625.464,1400.05,601.817,1416.01,593.034z"/>
				</g>
			</g>
			<g id="Window_Detail_R_1_">
				
					<ellipse fill="none" stroke="#F0E3CF" stroke-width="2.7095" stroke-miterlimit="10" cx="1415.076" cy="601.143" rx="5.859" ry="6.081"/>
				<path fill="none" stroke="#F0E3CF" stroke-width="2.7095" stroke-miterlimit="10" d="M1407.456,600.467
					c7.62,4.947,4.335,58.4,4.335,58.4"/>
				<path fill="none" stroke="#F0E3CF" stroke-width="2.7095" stroke-miterlimit="10" d="M1422.49,601.143
					c-8.726,5.924-10.699,57.726-10.699,57.726"/>
			</g>
			<g id="Window_Detail_L_1_">
				
					<ellipse fill="none" stroke="#F0E3CF" stroke-width="2.7095" stroke-miterlimit="10" cx="1339.016" cy="598.33" rx="5.476" ry="5.299"/>
				<path fill="none" stroke="#F0E3CF" stroke-width="2.7095" stroke-miterlimit="10" d="M1336.162,648.438
					c0.775-26.383,4.87-38.511-5.727-50.106"/>
				<path fill="none" stroke="#F0E3CF" stroke-width="2.7095" stroke-miterlimit="10" d="M1336.162,648.438
					c2.765-33.443,0-42.563,11.097-47.971"/>
			</g>
			<g id="Window_Detail_C_1_">
				<path fill="none" stroke="#F0E3CF" stroke-width="2.7095" stroke-miterlimit="10" d="M1367.939,652.967
					c2.565-120.062,1.235-130.872,9.201-136.276"/>
				<path fill="none" stroke="#F0E3CF" stroke-width="2.7095" stroke-miterlimit="10" d="M1380.984,653.586
					c1.876-118.083,6.16-132.167-3.844-136.896"/>
				<path fill="none" stroke="#F0E3CF" stroke-width="2.7095" stroke-miterlimit="10" d="M1383.439,535.256
					c2.008-14.175,7.109-14.852,7.109-14.852"/>
				<path fill="none" stroke="#F0E3CF" stroke-width="2.7095" stroke-miterlimit="10" d="M1370.947,535.256
					c-3.837-13.161-7.617-14.551-7.617-14.551"/>
				<path fill="none" stroke="#F0E3CF" stroke-width="2.7095" stroke-miterlimit="10" d="M1377.142,516.69
					c0,0,2.911-9.097,9.854-10.122"/>
				<path fill="none" stroke="#F0E3CF" stroke-width="2.7095" stroke-miterlimit="10" d="M1377.142,516.69
					c-4.938-13.176-9.202-11.585-9.202-11.585"/>
				<path fill="none" stroke="#F0E3CF" stroke-width="2.7095" stroke-miterlimit="10" d="M1373.105,508.564
					c-0.224-6.738,4.449-14.847,4.449-14.847"/>
				<path fill="none" stroke="#F0E3CF" stroke-width="2.7095" stroke-miterlimit="10" d="M1382.068,508.564
					c-0.356-7.076-4.514-14.847-4.514-14.847"/>
			</g>
		</g>
		<g>
			<path fill="#C8C5B6" d="M1391.077,655.338c0,0,1.293-42.22,2.587-84.439c0.137-5.277,0.288-10.556,0.351-15.75
				c0.12-5.195,0.096-10.309,0.089-15.256c-0.104-4.944-0.2-9.728-0.592-14.243c-0.334-4.52-0.962-8.767-1.864-12.615
				c-0.166-0.979-0.505-1.887-0.779-2.792c-0.284-0.902-0.562-1.783-0.832-2.644c-0.669-1.67-1.363-3.234-2.009-4.705
				c-0.766-1.413-1.48-2.736-2.143-3.96c-0.72-1.189-1.416-2.263-2.024-3.243c-1.207-1.971-2.301-3.424-2.978-4.459
				c-0.698-1.022-1.07-1.567-1.07-1.567s0.377,0.542,1.084,1.558c0.685,1.031,1.789,2.476,3.013,4.438
				c0.618,0.976,1.323,2.044,2.053,3.229c0.673,1.221,1.4,2.54,2.178,3.95c0.658,1.468,1.368,3.032,2.052,4.703
				c0.278,0.86,0.564,1.742,0.856,2.646c0.284,0.904,0.631,1.816,0.805,2.796c0.938,3.854,1.603,8.111,1.975,12.639
				c0.428,4.525,0.562,9.312,0.706,14.264c0.046,4.953,0.111,10.071,0.034,15.27c-0.021,5.198-0.13,10.479-0.226,15.759
				c-0.955,42.229-1.91,84.46-1.91,84.46L1391.077,655.338z"/>
		</g>
		<g>
			<path fill="#C8C5B6" d="M1428.271,660.448c0,0,0.147-4.748,0.371-11.869c0.191-7.12,0.496-16.616,0.271-26.103
				c-0.115-4.74-0.393-9.48-0.982-13.885c-0.61-4.392-1.533-8.474-3-11.713c-0.725-1.618-1.545-3.034-2.426-4.178
				c-0.903-1.12-1.776-2.041-2.611-2.659c-0.392-0.343-0.791-0.58-1.124-0.807c-0.329-0.234-0.63-0.398-0.878-0.525
				c-0.49-0.264-0.752-0.404-0.752-0.404s0.265,0.137,0.76,0.392c0.25,0.123,0.556,0.28,0.89,0.511
				c0.338,0.221,0.742,0.452,1.141,0.789c0.852,0.605,1.744,1.515,2.674,2.628c0.908,1.136,1.762,2.549,2.521,4.167
				c1.537,3.241,2.538,7.334,3.23,11.739c0.673,4.416,1.035,9.17,1.235,13.923c0.396,9.51,0.261,19.021,0.195,26.147
				c-0.098,7.126-0.161,11.877-0.161,11.877L1428.271,660.448z"/>
		</g>
		<path fill="none" stroke="#C8C5B6" stroke-width="2.7095" stroke-miterlimit="10" d="M1375.328,444.623
			c32.866,97.29,86.773,215.62,86.773,215.62"/>
		<g>
			<path fill="#C8C5B6" d="M1350.294,651.792c0,0,0.188-4.257,0.469-10.643c0.269-6.387,0.657-14.899,0.837-23.414
				c0.074-4.257,0.111-8.517-0.112-12.494c-0.107-1.989-0.292-3.908-0.62-5.7c-0.331-1.786-0.798-3.464-1.566-4.852
				c-0.752-1.396-1.77-2.476-2.797-3.256c-1.028-0.787-2.023-1.335-2.839-1.781c-1.644-0.879-2.603-1.347-2.603-1.347
				s0.968,0.447,2.629,1.295c0.825,0.433,1.834,0.959,2.888,1.732c1.053,0.767,2.11,1.845,2.905,3.253
				c0.812,1.401,1.32,3.096,1.69,4.895c0.367,1.806,0.592,3.734,0.739,5.73c0.306,3.995,0.353,8.266,0.361,12.53
				c-0.011,8.53-0.229,17.054-0.37,23.444c-0.154,6.392-0.259,10.651-0.259,10.651L1350.294,651.792z"/>
		</g>
	</g>
	<g id="Roof">
		<g id="XMLID_186_">
			<g>
				<path fill="#A7C3D7" d="M1373.104,425.708l354.277,18.917c0,0,74.257,174.758,96.438,193.675l-335.48,70.604
					C1488.338,708.904,1402.305,525.701,1373.104,425.708z"/>
			</g>
		</g>
		<g id="XMLID_185_">
			<g>
				<path fill="#E1D6BF" d="M1823.818,638.301l-335.48,70.604c-75.615-156.179-115.234-283.196-115.234-283.196l3.599-10.459
					l0.259,0.095h2.716c46.63,143.233,120.208,284.764,120.208,284.764l321.437-64.348l1.127-0.284
					C1823.343,637.314,1823.818,638.301,1823.818,638.301z"/>
				<path fill="#E1D6BF" d="M1733.275,435.167c10.853,38.619,78.645,178.663,89.171,200.31l-1.127,0.284
					c-43.222-69.98-93.938-191.135-93.938-191.135l-16.773-0.892l4.102-6.324L1733.275,435.167z"/>
			</g>
			<g>
				<polyline fill="none" stroke="#FFFEF7" stroke-width="1.3548" stroke-miterlimit="10" points="1373.104,425.708 
					1376.701,415.25 1376.824,414.898 				"/>
				
					<line fill="none" stroke="#FFFEF7" stroke-width="1.3548" stroke-miterlimit="10" x1="1376.96" y1="415.344" x2="1379.676" y2="415.344"/>
				
					<line fill="none" stroke="#FFFEF7" stroke-width="1.3548" stroke-miterlimit="10" x1="1710.605" y1="443.734" x2="1714.708" y2="437.41"/>
				
					<line fill="none" stroke="#FFFEF7" stroke-width="1.3548" stroke-miterlimit="10" x1="1714.708" y1="437.41" x2="1733.275" y2="435.167"/>
				<path fill="none" stroke="#FFFEF7" stroke-width="1.3548" stroke-miterlimit="10" d="M1733.275,435.167
					c10.853,38.619,78.645,178.663,89.171,200.31c0.896,1.839,1.372,2.824,1.372,2.824"/>
				
					<line fill="none" stroke="#FFFEF7" stroke-width="1.3548" stroke-miterlimit="10" x1="1823.818" y1="638.301" x2="1488.338" y2="708.904"/>
				<path fill="none" stroke="#FFFEF7" stroke-width="1.3548" stroke-miterlimit="10" d="M1488.338,708.904
					c-75.615-156.179-115.234-283.196-115.234-283.196"/>
			</g>
		</g>
		<g id="XMLID_183_">
			<g>
				<path fill="#EBE2D0" d="M1368.811,410.385c0-2.485,2.023-4.5,4.522-4.5h2.269h5.434h4.984c2.5,0,4.522,2.015,4.522,4.5v0.459
					c0,2.486-2.022,4.5-4.522,4.5h-12.687c-2.499,0-4.522-2.013-4.522-4.5V410.385z"/>
				<polygon fill="#EBE2D0" points="1375.33,377.509 1375.602,377.509 1381.034,377.509 1381.034,389.67 1390.542,389.67 
					1390.542,395.075 1381.034,395.075 1381.034,405.885 1375.602,405.885 1375.602,395.075 1366.094,395.075 1366.094,389.67 
					1375.602,389.67 				"/>
			</g>
			<g>
				<path fill="none" stroke="#FFFEF7" stroke-width="1.3548" stroke-miterlimit="10" d="M1381.034,405.885h4.985
					c2.498,0,4.521,2.015,4.521,4.5v0.459c0,2.486-2.023,4.5-4.521,4.5h-12.688c-2.499,0-4.523-2.013-4.523-4.5v-0.459
					c0-2.485,2.024-4.5,4.523-4.5h2.27H1381.034z"/>
				
					<line fill="none" stroke="#FFFEF7" stroke-width="1.3548" stroke-miterlimit="10" x1="1375.602" y1="405.885" x2="1375.602" y2="395.075"/>
				
					<line fill="none" stroke="#FFFEF7" stroke-width="1.3548" stroke-miterlimit="10" x1="1375.602" y1="395.075" x2="1366.094" y2="395.075"/>
				
					<line fill="none" stroke="#FFFEF7" stroke-width="1.3548" stroke-miterlimit="10" x1="1366.094" y1="395.075" x2="1366.094" y2="389.67"/>
				
					<line fill="none" stroke="#FFFEF7" stroke-width="1.3548" stroke-miterlimit="10" x1="1366.094" y1="389.67" x2="1375.602" y2="389.67"/>
				
					<line fill="none" stroke="#FFFEF7" stroke-width="1.3548" stroke-miterlimit="10" x1="1375.602" y1="389.67" x2="1375.33" y2="377.509"/>
				
					<line fill="none" stroke="#FFFEF7" stroke-width="1.3548" stroke-miterlimit="10" x1="1375.602" y1="377.509" x2="1381.034" y2="377.509"/>
				
					<line fill="none" stroke="#FFFEF7" stroke-width="1.3548" stroke-miterlimit="10" x1="1381.034" y1="377.509" x2="1381.034" y2="389.67"/>
				
					<line fill="none" stroke="#FFFEF7" stroke-width="1.3548" stroke-miterlimit="10" x1="1381.034" y1="389.67" x2="1390.542" y2="389.67"/>
				
					<line fill="none" stroke="#FFFEF7" stroke-width="1.3548" stroke-miterlimit="10" x1="1390.542" y1="389.67" x2="1390.542" y2="395.075"/>
				
					<line fill="none" stroke="#FFFEF7" stroke-width="1.3548" stroke-miterlimit="10" x1="1390.542" y1="395.075" x2="1381.034" y2="395.075"/>
				
					<line fill="none" stroke="#FFFEF7" stroke-width="1.3548" stroke-miterlimit="10" x1="1381.034" y1="395.075" x2="1381.034" y2="405.885"/>
			</g>
		</g>
	</g>
	<g id="Steps">
		<g id="XMLID_51_">
			<g>
				<polygon fill="#D7D4CF" points="1423.82,965.305 1424.499,973.412 1292.067,951.347 1290.709,951.347 1290.709,943.685 
					1291.389,943.685 				"/>
			</g>
			<g>
				
					<line fill="none" stroke="#D7D4CF" stroke-width="1.3548" stroke-miterlimit="10" x1="1292.067" y1="951.347" x2="1424.499" y2="973.412"/>
				<polyline fill="none" stroke="#D7D4CF" stroke-width="1.3548" stroke-miterlimit="10" points="1290.709,951.792 
					1290.709,951.347 1290.709,943.685 				"/>
				
					<line fill="none" stroke="#D7D4CF" stroke-width="1.3548" stroke-miterlimit="10" x1="1291.389" y1="943.685" x2="1423.82" y2="965.305"/>
				
					<line fill="none" stroke="#D7D4CF" stroke-width="1.3548" stroke-miterlimit="10" x1="1423.82" y1="965.305" x2="1424.499" y2="973.412"/>
			</g>
		</g>
		<g id="XMLID_56_">
			<g>
				<polygon fill="#D7D4CF" points="1323.308,930.848 1323.308,924.767 1323.987,924.767 1424.159,943.685 1423.82,951.347 
					1323.987,930.848 				"/>
			</g>
			<g>
				
					<line fill="none" stroke="#D7D4CF" stroke-width="1.3548" stroke-miterlimit="10" x1="1323.987" y1="930.848" x2="1423.82" y2="951.347"/>
				
					<line fill="none" stroke="#D7D4CF" stroke-width="1.3548" stroke-miterlimit="10" x1="1423.82" y1="951.347" x2="1424.159" y2="943.685"/>
				
					<line fill="none" stroke="#D7D4CF" stroke-width="1.3548" stroke-miterlimit="10" x1="1424.159" y1="943.685" x2="1323.987" y2="924.767"/>
				<polyline fill="none" stroke="#D7D4CF" stroke-width="1.3548" stroke-miterlimit="10" points="1323.308,924.767 
					1323.308,930.848 1323.308,931.523 				"/>
			</g>
		</g>
		<g id="XMLID_58_">
			<g>
				<polygon fill="#E6DFDE" points="1290.709,943.685 1290.709,937.374 1311.314,930.848 1323.308,931.523 1423.82,951.792 
					1423.82,965.305 				"/>
			</g>
			<g>
				
					<line fill="none" stroke="#D7D4CF" stroke-width="1.3548" stroke-miterlimit="10" x1="1323.308" y1="931.523" x2="1311.314" y2="930.848"/>
				
					<line fill="none" stroke="#D7D4CF" stroke-width="1.3548" stroke-miterlimit="10" x1="1311.314" y1="930.848" x2="1290.709" y2="937.374"/>
				<polyline fill="none" stroke="#D7D4CF" stroke-width="1.3548" stroke-miterlimit="10" points="1290.709,936.929 
					1290.709,937.374 1290.709,943.685 				"/>
				
					<line fill="none" stroke="#D7D4CF" stroke-width="1.3548" stroke-miterlimit="10" x1="1290.709" y1="943.685" x2="1423.82" y2="965.305"/>
				
					<line fill="none" stroke="#D7D4CF" stroke-width="1.3548" stroke-miterlimit="10" x1="1423.82" y1="965.305" x2="1423.82" y2="951.792"/>
				
					<line fill="none" stroke="#D7D4CF" stroke-width="1.3548" stroke-miterlimit="10" x1="1423.82" y1="951.792" x2="1323.308" y2="931.523"/>
			</g>
		</g>
		<g id="XMLID_57_">
			<g>
				<polygon fill="#E6DFDE" points="1323.987,924.767 1349.794,908.998 1423.82,928.591 1424.159,943.685 				"/>
			</g>
			<g>
				
					<line fill="none" stroke="#E6DFDE" stroke-width="1.3548" stroke-miterlimit="10" x1="1323.987" y1="924.767" x2="1349.794" y2="908.998"/>
				
					<line fill="none" stroke="#E6DFDE" stroke-width="1.3548" stroke-miterlimit="10" x1="1349.794" y1="908.998" x2="1423.82" y2="928.591"/>
				
					<line fill="none" stroke="#E6DFDE" stroke-width="1.3548" stroke-miterlimit="10" x1="1423.82" y1="928.591" x2="1424.159" y2="943.685"/>
				
					<line fill="none" stroke="#E6DFDE" stroke-width="1.3548" stroke-miterlimit="10" x1="1424.159" y1="943.685" x2="1323.987" y2="924.767"/>
			</g>
		</g>
	</g>
	<g id="Left_church_vertical">
		<g id="XMLID_12_">
			<g>
				<path fill="#E9DFCD" d="M1240.453,716.674v235.118l0.066,0.203l-12.971,4.297l-1.807-53.146l7.919-14.863v-0.014V717.971
					c-3.043-2.932-13.135-14.661-6.004-35.173C1229.058,696.595,1240.453,716.674,1240.453,716.674z"/>
			</g>
		</g>
		<g id="XMLID_18_">
			<g>
				<polygon fill="#F0E3CF" points="1256.073,602.276 1264.671,624.343 1264.223,624.789 1264.223,678.839 1271.463,680.865 
					1267.85,887.837 1253.343,893.242 1256.061,720.729 1246.564,720.729 1246.117,618.032 				"/>
			</g>
			<g>
				
					<line fill="none" stroke="#FFFEF7" stroke-width="2.7095" stroke-miterlimit="10" x1="1253.343" y1="893.242" x2="1256.061" y2="720.729"/>
				<polyline fill="none" stroke="#FFFEF7" stroke-width="2.7095" stroke-miterlimit="10" points="1256.073,720.729 
					1256.061,720.729 1246.564,720.729 				"/>
				
					<line fill="none" stroke="#FFFEF7" stroke-width="2.7095" stroke-miterlimit="10" x1="1246.564" y1="720.729" x2="1246.117" y2="618.032"/>
				
					<line fill="none" stroke="#FFFEF7" stroke-width="2.7095" stroke-miterlimit="10" x1="1246.117" y1="618.032" x2="1256.073" y2="602.276"/>
				
					<line fill="none" stroke="#FFFEF7" stroke-width="2.7095" stroke-miterlimit="10" x1="1256.073" y1="602.276" x2="1264.671" y2="624.343"/>
				
					<line fill="none" stroke="#FFFEF7" stroke-width="2.7095" stroke-miterlimit="10" x1="1267.85" y1="887.837" x2="1253.343" y2="893.242"/>
			</g>
		</g>
		<g id="XMLID_19_">
			<g>
				<polygon fill="#F2E7CE" points="1256.061,903.146 1256.073,903.146 1273.73,903.146 1273.73,954.494 1273.73,956.292 
					1256.073,958.549 				"/>
				<polygon fill="#F2E7CE" points="1267.85,887.837 1273.73,903.146 1256.073,903.146 1253.343,893.242 				"/>
			</g>
			<g>
				
					<line fill="none" stroke="#FFFEF7" stroke-width="2.7095" stroke-miterlimit="10" x1="1253.343" y1="893.242" x2="1267.85" y2="887.837"/>
				
					<line fill="none" stroke="#FFFEF7" stroke-width="2.7095" stroke-miterlimit="10" x1="1256.073" y1="903.146" x2="1273.73" y2="903.146"/>
			</g>
		</g>
		<g id="XMLID_13_">
			<g>
				<path fill="#E9E1CF" d="M1233.893,887.837l-19.478-7.216l-0.448-0.445V731.538c5.434,0,10.188-12.607,10.188-12.607
					c1.59,7.202,9.509,9.904,9.509,9.904L1233.893,887.837z"/>
				<polygon fill="#E9E1CF" points="1233.893,887.837 1225.743,903.146 1208.656,897.363 1203.101,895.485 1214.415,880.621 				"/>
				<polygon fill="#E9E1CF" points="1208.533,946.387 1208.533,897.742 1208.656,897.363 1225.743,903.146 1227.468,954.049 
					1226.558,955.778 				"/>
			</g>
			<g>
				<polyline fill="none" stroke="#FFFEF7" stroke-width="2.7095" stroke-miterlimit="10" points="1225.743,903.146 
					1208.656,897.363 1203.101,895.485 				"/>
				
					<line fill="none" stroke="#FFFEF7" stroke-width="2.7095" stroke-miterlimit="10" x1="1203.101" y1="895.485" x2="1214.415" y2="880.621"/>
				
					<line fill="none" stroke="#FFFEF7" stroke-width="2.7095" stroke-miterlimit="10" x1="1214.415" y1="880.621" x2="1233.893" y2="887.837"/>
				
					<line fill="none" stroke="#FFFEF7" stroke-width="2.7095" stroke-miterlimit="10" x1="1233.893" y1="887.837" x2="1225.743" y2="903.146"/>
				
					<line fill="none" stroke="#FFFEF7" stroke-width="2.7095" stroke-miterlimit="10" x1="1208.533" y1="897.742" x2="1208.533" y2="946.387"/>
				
					<line fill="none" stroke="#FFFEF7" stroke-width="2.7095" stroke-miterlimit="10" x1="1227.468" y1="954.049" x2="1225.743" y2="903.146"/>
				
					<line fill="none" stroke="#FFFEF7" stroke-width="2.7095" stroke-miterlimit="10" x1="1213.967" y1="880.176" x2="1213.967" y2="731.538"/>
				<path fill="none" stroke="#FFFEF7" stroke-width="2.7095" stroke-miterlimit="10" d="M1213.967,731.538
					c5.434,0,10.188-12.607,10.188-12.607"/>
				<path fill="none" stroke="#FFFEF7" stroke-width="2.7095" stroke-miterlimit="10" d="M1224.153,718.931
					c1.59,7.202,9.509,9.904,9.509,9.904"/>
				
					<line fill="none" stroke="#FFFEF7" stroke-width="2.7095" stroke-miterlimit="10" x1="1233.662" y1="728.835" x2="1233.893" y2="887.837"/>
			</g>
		</g>
		<g id="XMLID_14_">
			<g>
				<path fill="#EFDDD5" d="M1233.662,720.729v8.106c0,0-7.919-2.702-9.509-9.904c0,0-4.755,12.607-10.188,12.607h-0.68v-6.757
					c9.276-2.257,8.814-20.715,8.814-20.715S1224.86,721.079,1233.662,720.729z"/>
			</g>
			<g>
				<path fill="none" stroke="#FFFEF7" stroke-width="2.7095" stroke-miterlimit="10" d="M1213.967,731.538
					c5.434,0,10.188-12.607,10.188-12.607"/>
				<path fill="none" stroke="#FFFEF7" stroke-width="2.7095" stroke-miterlimit="10" d="M1224.153,718.931
					c1.59,7.202,9.509,9.904,9.509,9.904"/>
				
					<line fill="none" stroke="#FFFEF7" stroke-width="2.7095" stroke-miterlimit="10" x1="1233.662" y1="728.835" x2="1233.662" y2="720.729"/>
				<path fill="none" stroke="#FFFEF7" stroke-width="2.7095" stroke-miterlimit="10" d="M1233.662,720.729
					c-8.802,0.352-11.561-16.661-11.561-16.661"/>
				
					<line fill="none" stroke="#FFFEF7" stroke-width="2.7095" stroke-miterlimit="10" x1="1213.287" y1="731.538" x2="1213.287" y2="724.781"/>
				<path fill="none" stroke="#FFFEF7" stroke-width="2.7095" stroke-miterlimit="10" d="M1213.287,724.781
					c9.277-2.257,8.814-20.715,8.814-20.715"/>
			</g>
		</g>
		<g id="XMLID_15_">
			<g>
				<path fill="none" stroke="#FFFEF7" stroke-width="2.7095" stroke-miterlimit="10" d="M1223.406,685.419
					c0.408-3.283,0.651-5.621,0.721-6.351"/>
				<path fill="none" stroke="#FFFEF7" stroke-width="2.7095" stroke-miterlimit="10" d="M1213.287,724.781
					c5.406-6.716,8.734-28.295,10.119-39.321"/>
				<path fill="none" stroke="#FFFEF7" stroke-width="2.7095" stroke-miterlimit="10" d="M1224.153,678.839
					c0,0-0.014,0.081-0.026,0.229c-0.326,2.229-0.558,4.352-0.721,6.351c0,0.014,0,0.027,0,0.041
					c-2.499,29.755,10.256,35.269,10.256,35.269"/>
				<path fill="none" stroke="#FFFEF7" stroke-width="2.7095" stroke-linecap="round" stroke-linejoin="round" d="M1233.662,720.729
					c-8.802,0.352-11.561-16.661-11.561-16.661"/>
				<path fill="none" stroke="#FFFEF7" stroke-width="2.7095" stroke-linecap="round" stroke-linejoin="round" d="M1213.287,724.781
					c9.277-2.257,8.814-20.715,8.814-20.715"/>
			</g>
		</g>
		<g id="XMLID_16_">
			<g>
				<path fill="#F7EDDB" d="M1256.073,903.146v55.401l-14.941-6.757l-0.679-235.118c11.083,9.013,15.605,4.054,15.605,4.054
					l-2.717,172.516l2.717,9.904H1256.073z"/>
			</g>
			<g>
				
					<line fill="none" stroke="#FFFEF7" stroke-width="2.7095" stroke-miterlimit="10" x1="1241.132" y1="951.792" x2="1240.453" y2="716.674"/>
				<path fill="none" stroke="#FFFEF7" stroke-width="2.7095" stroke-miterlimit="10" d="M1240.453,716.674
					c11.083,9.014,15.605,4.055,15.605,4.055"/>
				
					<line fill="none" stroke="#FFFEF7" stroke-width="2.7095" stroke-miterlimit="10" x1="1256.061" y1="720.729" x2="1253.343" y2="893.242"/>
				
					<line fill="none" stroke="#FFFEF7" stroke-width="2.7095" stroke-miterlimit="10" x1="1253.343" y1="893.242" x2="1256.061" y2="903.146"/>
				<polyline fill="none" stroke="#FFFEF7" stroke-width="2.7095" stroke-miterlimit="10" points="1256.073,900.444 
					1256.073,903.146 1256.073,958.549 				"/>
			</g>
		</g>
		<g id="XMLID_17_">
			<g>
				<path fill="#F0E8D9" d="M1227.55,678.839l0.814-60.807l10.052-18.917l7.701,18.917l0.584,102.694
					C1227.196,707.958,1227.55,678.839,1227.55,678.839z"/>
			</g>
			<g>
				
					<line fill="none" stroke="#FFFEF7" stroke-width="2.7095" stroke-miterlimit="10" x1="1227.55" y1="678.839" x2="1228.364" y2="618.032"/>
				
					<line fill="none" stroke="#FFFEF7" stroke-width="2.7095" stroke-miterlimit="10" x1="1228.364" y1="618.032" x2="1238.416" y2="599.115"/>
				
					<line fill="none" stroke="#FFFEF7" stroke-width="2.7095" stroke-miterlimit="10" x1="1238.416" y1="599.115" x2="1246.117" y2="618.032"/>
				<path fill="none" stroke="#FFFEF7" stroke-width="2.7095" stroke-miterlimit="10" d="M1246.701,720.729
					c-19.505-12.771-19.151-41.89-19.151-41.89"/>
				
					<line fill="none" stroke="#FFFEF7" stroke-width="2.7095" stroke-miterlimit="10" x1="1246.117" y1="618.032" x2="1246.701" y2="720.729"/>
			</g>
		</g>
		<g id="XMLID_21_">
			<g>
				<polygon fill="#DFDACC" points="1246.729,618.411 1246.117,618.032 1248.263,486.961 1264.182,624.438 1256.073,603.628 				"/>
			</g>
			<g>
				<polyline fill="none" stroke="#FFFEF7" stroke-width="2.7095" stroke-miterlimit="10" points="1246.117,619.384 
					1246.729,618.411 1256.073,603.628 				"/>
				<polyline fill="none" stroke="#FFFEF7" stroke-width="2.7095" stroke-miterlimit="10" points="1256.073,603.628 
					1264.182,624.438 1264.671,625.694 				"/>
				
					<line fill="none" stroke="#FFFEF7" stroke-width="2.7095" stroke-miterlimit="10" x1="1246.117" y1="618.032" x2="1248.263" y2="486.961"/>
			</g>
		</g>
		<g id="XMLID_20_">
			<g>
				<polygon fill="#EBDFCD" points="1228.364,618.032 1248.263,486.961 1246.117,618.032 1245.642,618.222 1238.416,600.466 
					1228.921,618.33 				"/>
			</g>
			<g>
				<polyline fill="none" stroke="#FFFEF7" stroke-width="2.7095" stroke-miterlimit="10" points="1228.364,619.384 
					1228.921,618.33 1238.416,600.466 				"/>
				<polyline fill="none" stroke="#FFFEF7" stroke-width="2.7095" stroke-miterlimit="10" points="1238.416,600.466 
					1245.642,618.222 1246.117,619.384 				"/>
				
					<line fill="none" stroke="#FFFEF7" stroke-width="2.7095" stroke-miterlimit="10" x1="1248.263" y1="486.961" x2="1228.364" y2="618.032"/>
			</g>
		</g>
		<g id="XMLID_22_">
			<g>
				<polygon fill="#F7E9CE" points="1292.407,788.966 1292.067,951.347 1273.73,946.387 1273.73,903.146 1267.85,887.837 
					1269.656,786.264 				"/>
			</g>
			<g>
				
					<line fill="none" stroke="#FFFEF7" stroke-width="2.7095" stroke-miterlimit="10" x1="1292.407" y1="788.966" x2="1292.067" y2="951.347"/>
				
					<line fill="none" stroke="#FFFEF7" stroke-width="2.7095" stroke-miterlimit="10" x1="1269.656" y1="786.264" x2="1292.407" y2="788.966"/>
			</g>
		</g>
		<g id="XMLID_23_" opacity="0.2">
			<g>
				
					<linearGradient id="SVGID_4_" gradientUnits="userSpaceOnUse" x1="1268.7529" y1="212.1948" x2="1293.3105" y2="212.1948" gradientTransform="matrix(1 0 0 -1 0 1081)">
					<stop  offset="0" style="stop-color:#000000"/>
					<stop  offset="0.2097" style="stop-color:#474747"/>
					<stop  offset="0.421" style="stop-color:#888888"/>
					<stop  offset="0.6135" style="stop-color:#BBBBBB"/>
					<stop  offset="0.7803" style="stop-color:#E0E0E0"/>
					<stop  offset="0.9147" style="stop-color:#F7F7F7"/>
					<stop  offset="1" style="stop-color:#FFFFFF"/>
				</linearGradient>
				<polygon fill="url(#SVGID_4_)" points="1293.311,788.966 1292.971,951.347 1274.634,946.387 1274.634,903.146 1268.753,887.837 
					1270.561,786.264 				"/>
			</g>
			<g>
				
					<line fill="none" stroke="#FFFEF7" stroke-width="2.7095" stroke-miterlimit="10" x1="1293.311" y1="788.966" x2="1292.971" y2="951.347"/>
				
					<line fill="none" stroke="#FFFEF7" stroke-width="2.7095" stroke-miterlimit="10" x1="1270.561" y1="786.264" x2="1293.311" y2="788.966"/>
			</g>
		</g>
	</g>
	<g id="Right_church_vertical">
		<g id="XMLID_24_">
			<path fill="#FBE9D4" d="M1448.948,985.235l3.396-238.496l-9.128-3.026c0.681,0.175,9.372,1.743,15.403-29.296l9.345,31.984
				V992.33l-0.067,0.176L1448.948,985.235z"/>
			<path fill="none" stroke="#FFFEF7" stroke-width="2.7095" stroke-miterlimit="10" d="M1467.964,992.33V746.401l-9.345-31.984
				c-6.031,31.039-14.725,29.471-15.403,29.296l9.128,3.026l-3.396,238.496"/>
		</g>
		<g id="XMLID_25_">
			<polygon fill="#DCD2C4" points="1465.587,711.269 1482.457,736.794 1482.226,736.942 1482.226,985.573 1467.285,992.33 
				1467.285,746.401 1467.909,746.226 1458.619,714.417 			"/>
			<polyline fill="none" stroke="#FFFEF7" stroke-width="2.7095" stroke-miterlimit="10" points="1465.587,711.269 
				1458.619,714.417 1467.909,746.226 1467.964,746.401 1467.285,746.401 1467.285,992.33 			"/>
		</g>
		<g id="XMLID_26_">
			<path fill="#F5EBCF" d="M1499.884,753.158l1.439,235.793l-19.111-3.271l0.015-0.107l0.34-248.631l11.545-20.606l11.546,3.716
				C1504.977,747.077,1499.884,753.158,1499.884,753.158z"/>
			<path fill="none" stroke="#FFFEF7" stroke-width="2.7095" stroke-miterlimit="10" d="M1501.323,988.951l-1.439-235.793
				c0,0,5.092-6.081,5.772-33.106l-11.546-3.716"/>
		</g>
		<g id="XMLID_27_">
			<path fill="#D7D1C4" d="M1513.982,750.455l4.155,232.754l-16.814,5.742l-1.439-235.793c0,0,5.094-6.081,5.772-33.106
				l16.639,33.106L1513.982,750.455z"/>
			<path fill="none" stroke="#FFFEF7" stroke-width="2.7095" stroke-miterlimit="10" d="M1513.982,750.455l8.312,2.703
				l-16.639-33.106c-0.681,27.025-5.772,33.106-5.772,33.106l1.439,235.793L1513.982,750.455z"/>
			<path fill="none" stroke="#FFFEF7" stroke-width="2.7095" stroke-miterlimit="10" d="M1513.982,750.455l4.156,232.754
				L1513.982,750.455z"/>
		</g>
		<polygon fill="#D9D2CB" points="1483.448,735.361 1484.264,643.03 1488.338,628.505 1496.148,643.03 1495.754,716.863 		"/>
		<polygon fill="#FFF0DA" points="1482.226,736.942 1463.889,711.269 1463.889,647.76 1463.577,647.584 1474.076,628.505 
			1484.264,643.03 1483.448,735.361 		"/>
		
			<line fill="none" stroke="#FFFEF7" stroke-width="2.7095" stroke-miterlimit="10" x1="1463.889" y1="647.76" x2="1463.889" y2="711.269"/>
		<polygon fill="#E6DDCE" points="1499.884,643.03 1496.487,643.706 1496.148,643.03 1488.338,628.505 1484.264,643.03 
			1474.076,628.505 1463.291,648.098 1454.381,643.03 1477.132,523.782 1477.472,523.444 1481.547,523.444 		"/>
		
			<line fill="none" stroke="#FFFEF7" stroke-width="2.7095" stroke-miterlimit="10" x1="1456.077" y1="643.031" x2="1471.02" y2="620.061"/>
		
			<line fill="none" stroke="#FFFEF7" stroke-width="2.7095" stroke-miterlimit="10" x1="1471.02" y1="620.061" x2="1484.262" y2="643.031"/>
		<polygon fill="#F5EAD2" points="1424.499,798.763 1451.583,800.114 1448.948,979.831 1424.499,973.412 1424.499,799.101 		"/>
		
			<line fill="none" stroke="#FFFEF7" stroke-width="2.7095" stroke-miterlimit="10" x1="1451.583" y1="800.114" x2="1424.499" y2="798.763"/>
	</g>
	<g id="Entrance">
		<g>
			<path fill="#E3D3C0" d="M1350.474,909.174V789.642c0.23-30.633,33.073-42.349,70.983-32.876
				c4.862,10.08,7.864,23.66,7.457,42.336l-0.34,0.676h-4.754v128.813L1350.474,909.174z"/>
			<path fill="#E3D3C0" d="M1340.816,849.097l1.071-50.319l0.204-9.812c4.984-57.874,76.594-37.268,76.594-37.268h0.014
				c0.965,1.581,1.9,3.271,2.758,5.066c-37.91-9.473-70.753,2.243-70.982,32.876v119.532v2.986h-0.681c0,0-2.269,8.553-10.418,4.675
				L1340.816,849.097z"/>
			<path fill="#E3D3C0" d="M1341.889,798.776l-0.828-0.015l-12.957-2.364l-1.114-0.148c9.875-69.062,36.796-64.279,76.987-60.09
				l0.014-0.015c5.365,3.798,10.499,8.729,14.71,15.554h-0.015c0,0-71.607-20.606-76.593,37.268L1341.889,798.776z"/>
			<path fill="#E3D3C0" d="M1341.889,798.776l-1.071,50.319l-16.382,0.446l-1.345-0.027c0.543-21.391,1.86-38.916,3.897-53.267
				l1.113,0.148l12.959,2.364L1341.889,798.776z"/>
			<path fill="#E3D3C0" d="M1323.77,924.767c-1.005-29.268-1.209-54.131-0.679-75.251l1.345,0.027l16.382-0.446l-1.44,67.738
				l-15.389,7.932H1323.77z"/>
			<path fill="#E3D3C0" d="M1312.007,852.731c0.407-22.025,1.265-41.064,3.409-57.104c6.683-50.078,25.943-70.98,83.141-62.901
				c1.819,1.027,3.641,2.162,5.434,3.419l-0.015,0.015c-40.19-4.189-67.111-8.974-76.986,60.09
				c-2.037,14.351-3.354,31.876-3.897,53.267c-0.529,21.12-0.326,45.983,0.68,75.251c0.067,2.015,0.136,4.027,0.218,6.081
				c0,0-9.062,3.378-12.226,0h-0.447C1311.681,901.593,1311.6,875.555,1312.007,852.731z"/>
			<path fill="#E3D3C0" d="M1398.557,732.727c-57.196-8.08-76.458,12.823-83.141,62.901l-22.099-4.162v-2.5h-0.91
				c9.508-83.102,74.364-56.753,76.062-74.549C1370.562,722.822,1384.553,724.768,1398.557,732.727z"/>
			<path fill="#E3D3C0" d="M1293.317,791.466l22.099,4.162c-2.146,16.039-3.002,35.078-3.409,57.104l-18.825,1.823L1293.317,791.466
				z"/>
			<path fill="#E3D3C0" d="M1312.007,852.731c-0.407,22.822-0.326,48.86-0.692,78.115l-18.174,6.526h-0.136l0.177-82.818
				L1312.007,852.731z"/>
		</g>
		<g>
			<path fill="none" stroke="#C6C4B3" stroke-width="2.7095" stroke-miterlimit="10" d="M1368.471,714.417
				c-1.697,17.796-66.556-8.553-76.062,74.549"/>
			<path fill="none" stroke="#C6C4B3" stroke-width="2.7095" stroke-miterlimit="10" d="M1368.471,714.417
				c2.092,8.405,16.082,10.351,30.086,18.31c1.819,1.027,3.641,2.162,5.434,3.42c5.365,3.797,10.499,8.729,14.71,15.553
				c0.965,1.581,1.9,3.271,2.758,5.066c4.862,10.08,7.864,23.66,7.457,42.335"/>
			<polyline fill="none" stroke="#C6C4B3" stroke-width="2.7095" stroke-miterlimit="10" points="1293.317,788.966 
				1293.317,791.466 1293.182,854.556 1293.005,937.374 1292.979,951.347 			"/>
			<polyline fill="none" stroke="#C6C4B3" stroke-width="2.7095" stroke-miterlimit="10" points="1423.82,799.101 1423.82,799.776 
				1423.82,928.591 1423.82,973.412 			"/>
			<polyline fill="none" stroke="#C6C4B3" stroke-width="2.7095" stroke-miterlimit="10" points="1423.141,799.776 1423.82,799.776 
				1428.574,799.776 			"/>
			
				<line fill="none" stroke="#C6C4B3" stroke-width="2.7095" stroke-miterlimit="10" x1="1293.141" y1="937.374" x2="1311.314" y2="930.848"/>
			<path fill="none" stroke="#C6C4B3" stroke-width="2.7095" stroke-miterlimit="10" d="M1311.314,930.848
				c0.365-29.255,0.284-55.293,0.691-78.115c0.407-22.025,1.264-41.064,3.409-57.104c6.683-50.078,25.943-70.98,83.141-62.901"/>
			<path fill="none" stroke="#C6C4B3" stroke-width="2.7095" stroke-miterlimit="10" d="M1311.763,930.848
				c3.164,3.378,12.226,0,12.226,0"/>
			<path fill="none" stroke="#C6C4B3" stroke-width="2.7095" stroke-miterlimit="10" d="M1323.987,930.848
				c-0.082-2.054-0.149-4.066-0.218-6.081c-1.006-29.268-1.209-54.131-0.68-75.251c0.543-21.391,1.86-38.916,3.897-53.267
				c9.875-69.062,36.796-64.279,76.987-60.09"/>
			
				<line fill="none" stroke="#C6C4B3" stroke-width="2.7095" stroke-miterlimit="10" x1="1323.987" y1="924.767" x2="1339.376" y2="916.835"/>
			<polyline fill="none" stroke="#C6C4B3" stroke-width="2.7095" stroke-miterlimit="10" points="1339.376,916.835 
				1340.816,849.097 1341.889,798.776 1342.093,788.966 			"/>
			<path fill="none" stroke="#C6C4B3" stroke-width="2.7095" stroke-miterlimit="10" d="M1342.093,788.966
				c4.984-57.874,76.593-37.268,76.593-37.268"/>
			<path fill="none" stroke="#C6C4B3" stroke-width="2.7095" stroke-miterlimit="10" d="M1339.376,916.835
				c8.149,3.878,10.418-4.675,10.418-4.675"/>
			<polyline fill="none" stroke="#C6C4B3" stroke-width="2.7095" stroke-miterlimit="10" points="1350.474,912.605 1350.474,912.16 
				1350.474,909.174 1350.474,789.642 			"/>
			<path fill="none" stroke="#C6C4B3" stroke-width="2.7095" stroke-miterlimit="10" d="M1350.474,789.642
				c0.23-30.633,33.073-42.349,70.983-32.876"/>
			<polyline fill="none" stroke="#C6C4B3" stroke-width="2.7095" stroke-miterlimit="10" points="1349.794,908.998 
				1350.474,909.174 1423.82,928.591 			"/>
			<polyline fill="none" stroke="#F5EAD2" stroke-width="2.7095" stroke-miterlimit="10" points="1293.168,854.556 
				1293.182,854.556 1312.007,852.731 1314.724,852.475 			"/>
			<polyline fill="none" stroke="#F5EAD2" stroke-width="2.7095" stroke-miterlimit="10" points="1324.436,849.543 
				1340.816,849.097 1341.061,849.097 			"/>
			<polyline fill="none" stroke="#F5EAD2" stroke-width="2.7095" stroke-miterlimit="10" points="1293.317,791.466 
				1315.416,795.628 1318.554,796.223 			"/>
			
				<line fill="none" stroke="#F5EAD2" stroke-width="2.7095" stroke-miterlimit="10" x1="1328.104" y1="796.396" x2="1341.061" y2="798.763"/>
		</g>
	</g>
	<g id="Doors">
		<g id="XMLID_52_" opacity="0.7">
			<g>
				<polygon fill="#6B6B6B" points="1394.617,796.396 1394.576,908.552 1361.108,905.403 1364.735,796.396 				"/>
			</g>
		</g>
		<g id="XMLID_53_">
			<g>
				<polygon fill="#A7A6A4" points="1394.617,900.444 1394.576,908.552 1361.108,905.403 1364.735,796.396 1372.654,796.396 
					1368.471,897.742 				"/>
			</g>
		</g>
		<g id="XMLID_54_" opacity="0.7">
			<g>
				<polygon fill="#6B6B6B" points="1424.499,799.101 1424.499,913.957 1424.418,914.39 1400.824,910.35 1405.076,798.763 				"/>
			</g>
		</g>
		<g id="XMLID_55_">
			<g>
				<polygon fill="#A7A6A4" points="1400.824,910.35 1405.076,798.763 1412.669,799.101 1409.545,903.146 1409.559,903.146 
					1424.499,903.146 1424.499,913.957 				"/>
			</g>
		</g>
	</g>
</g>
</svg>
