<?xml version="1.0" encoding="utf-8"?>
<!-- Generator: Adobe Illustrator 16.0.3, SVG Export Plug-In . SVG Version: 6.00 Build 0)  -->
<!DOCTYPE svg PUBLIC "-//W3C//DTD SVG 1.1//EN" "http://www.w3.org/Graphics/SVG/1.1/DTD/svg11.dtd">
<svg version="1.1" id="Layer_1" xmlns="http://www.w3.org/2000/svg" xmlns:xlink="http://www.w3.org/1999/xlink" x="0px" y="0px"
	 width="1920px" height="1080px" viewBox="0 0 1920 1080" enable-background="new 0 0 1920 1080" xml:space="preserve">
<g id="Background_Hill_1">
	<g id="XMLID_4_">
		<path fill="#F8E3C5" d="M-102.613,945.45V567.286c187.029-25.642,878.585-57.69,878.585-57.69
			C1218.388,539.509,73.319,840.768-102.613,945.45z"/>
	</g>
	<g id="XMLID_5_">
		<path fill="#A4BCB3" d="M-102.613,1192.493V946.062v-0.455v-0.157c175.932-104.683,1321-405.941,878.585-435.854
			c25.773-38.46,320.105-88.486,386.572-108.971c483.236-158.101,778.1-55.554,778.1-55.554v847.422H-102.613L-102.613,1192.493z"/>
	</g>
	<g id="Foreground_RIver">
		<g id="River">
			<path fill="#F5EBDC" d="M459.075,738.42c306.159-111.435,534.153-199.979,316.897-228.824
				c398.629,48.062-95.834,133.87,64.534,228.824c69.202,35.284,816.63-87.22,1100.138,46.68
				c-512.604,29.913-674.403,65.524-674.403,65.524c-50.545-1.097-405.215-29.913-575.191-80.382
				C521.074,719.773,532.343,747.821,459.075,738.42z"/>
		</g>
		<g id="Trees_1_">
			<g id="XMLID_61_">
				<g>
					<path fill="#99D1B6" d="M953.229,622.066c1.894,1.925,0.832,5.131,1.25,7.49c0.644,2.783,2.524,4.271,3.8,6.836
						c2.738,5.144,4.405,11.543,5.05,17.533c0.215,3.411-0.858,6.617-0.214,9.824c0.846,2.988,2.954,5.771,3.989,8.979
						c0.846,2.782,2.311,8.556,0.846,11.325c-1.68,3.643-7.36,2.783-10.518,3.643c-4.419,1.064-10.101,2.578-13.686,5.771
						c-1.881,1.72-4.836,7.055-7.146,7.055c-3.585-3.206-7.776-1.925-12.209-3.001c-2.739-0.63-5.05-1.706-8.005-1.706
						c-4.836,0-6.502,1.501-7.991-4.065c-2.097-7.042-4.406-20.727,6.325-20.727c-3.8-5.35-6.541-8.979-3.8-15.379
						c1.062-2.577,2.525-4.707,3.156-7.285c0.644-2.977,0.644-5.13,2.525-7.913c1.905-2.554,4.646-3.617,5.896-5.978
						c1.679-3.002,0.846-7.489,3.8-9.62c2.312-1.909,3.346-1.5,5.252-4.064c2.108-2.988,3.145-4.271,6.729-2.988
						c3.157,1.295,4.432,3.219,7.992,3.219C948.796,621.015,951.321,619.925,953.229,622.066z"/>
				</g>
			</g>
			<g>
				<path fill="#8F9391" d="M938.05,738.447c0,0-0.191-1.272-0.418-3.495c-0.107-1.111-0.256-2.461-0.36-4.007
					c-0.11-1.548-0.25-3.295-0.438-5.179c-0.168-1.887-0.33-3.926-0.472-6.077c-0.109-2.146-0.363-4.436-0.505-6.787
					c-0.154-2.355-0.312-4.79-0.475-7.265c-0.177-2.475-0.303-4.99-0.437-7.507c-0.129-2.521-0.275-5.042-0.359-7.526
					c-0.102-2.481-0.17-4.936-0.222-7.309c-0.107-4.744-0.068-9.19,0.048-13.004c0.046-1.905,0.151-3.656,0.258-5.208
					c0.084-1.55,0.214-2.903,0.31-4.016c0.197-2.228,0.373-3.499,0.373-3.499s0.296,1.255,0.7,3.45
					c0.427,2.197,0.902,5.332,1.486,9.098c0.559,3.765,1.108,8.157,1.608,12.882c0.243,2.362,0.488,4.801,0.67,7.292
					c0.206,2.488,0.361,5.018,0.521,7.549c0.104,2.539,0.215,5.077,0.271,7.578c0.094,2.496,0.049,4.969,0.021,7.354
					c-0.049,2.391-0.052,4.684-0.219,6.887c-0.141,2.197-0.298,4.27-0.464,6.178c-0.097,0.952-0.151,1.869-0.271,2.731
					c-0.124,0.86-0.241,1.678-0.351,2.444c-0.207,1.535-0.445,2.872-0.627,3.975C938.326,737.19,938.05,738.447,938.05,738.447z"/>
			</g>
			<path fill="#ACCCBE" d="M901.668,639.521c3.956,2.038-34.085,50.906,20.013,47.278c54.096-3.627,34.113-39.487,24.517-45.882
				c0-24.385-13.435-42.424-24.517-42.424C910.598,598.495,895.941,636.572,901.668,639.521z"/>
			<g>
				<path fill="#8F9391" d="M922.976,655.77c0,0,0.197,4.809,0.405,12.021c0.121,3.604,0.229,7.812,0.3,12.319
					c0.051,2.252,0.063,4.585,0.146,6.944c0.087,2.358,0.176,4.755,0.265,7.15c0.11,2.394,0.18,4.789,0.327,7.142
					c0.227,2.345,0.418,4.647,0.542,6.881c0.103,2.232,0.168,4.394,0.154,6.449c0.003,0.503-0.01,1.045,0.007,1.495
					c0.022,0.502,0.044,0.996,0.065,1.481c0.035,0.961,0.07,1.89,0.104,2.781c0.043,0.907,0.061,1.777,0.055,2.623
					c0.006,0.837,0.006,1.638-0.052,2.396c-0.026,0.751-0.101,1.461-0.179,2.114c-0.069,0.65-0.166,1.248-0.292,1.784
					c-0.112,0.535-0.209,1.009-0.327,1.416c-0.133,0.404-0.248,0.745-0.35,1.02c-0.197,0.542-0.303,0.832-0.303,0.832l-0.396-0.094
					c0,0-0.001-0.302-0.003-0.869c0.003-0.278,0.006-0.621,0.01-1.023c-0.007-0.4-0.067-0.869-0.088-1.38
					c-0.015-0.511-0.081-1.078-0.171-1.693c-0.064-0.614-0.145-1.274-0.28-1.985c-0.201-1.414-0.549-3.011-0.865-4.779
					c-0.161-0.899-0.328-1.839-0.501-2.81c-0.067-0.482-0.137-0.973-0.208-1.469c-0.073-0.551-0.104-1.026-0.159-1.556
					c-0.211-2.068-0.351-4.261-0.463-6.527c-0.09-2.27-0.117-4.615-0.117-6.998c0.076-2.375,0.153-4.789,0.23-7.202
					c0.064-2.41,0.128-4.821,0.191-7.194c0.066-2.371,0.201-4.692,0.295-6.947c0.185-4.505,0.437-8.708,0.611-12.312
					c0.35-7.207,0.64-12.012,0.64-12.012L922.976,655.77z"/>
			</g>
			<path fill="#91BAAB" d="M835.803,601.053c3.956,2.604-34.085,65.036,20.014,60.404c54.095-4.635,34.112-50.451,24.516-58.619
				c0-31.152-13.434-54.199-24.516-54.199C844.732,548.639,830.076,597.286,835.803,601.053z"/>
			<g>
				<path fill="#8F9391" d="M848.367,615.434c0,0,0.093,1.642,0.255,4.514c0.119,1.428,0.263,3.161,0.428,5.148
					c0.222,1.985,0.427,4.229,0.751,6.664c0.159,1.219,0.324,2.487,0.495,3.801c0.193,1.312,0.394,2.668,0.598,4.062
					c0.436,2.783,0.858,5.722,1.365,8.756c0.98,6.07,2.121,12.535,3.239,19.019c0.56,3.244,1.119,6.49,1.67,9.686
					c0.544,3.201,1.091,6.354,1.449,9.438c0.401,3.074,0.63,6.075,0.764,8.93c0.046,1.42,0.091,2.801,0.135,4.137
					c0.033,1.314,0.065,2.585,0.097,3.805c0.085,2.461,0.075,4.763,0.015,6.803c-0.096,2.044-0.259,3.832-0.508,5.289
					c-0.221,1.46-0.525,2.586-0.741,3.343c-0.242,0.749-0.148,1.148-0.148,1.148L858,719.888c0,0,0-0.411,0-1.182
					c0-0.383-0.246-0.854-0.26-1.408c-0.041-0.556-0.171-1.186-0.231-1.894c-0.118-1.414-0.347-3.12-0.645-5.074
					c-0.256-1.959-0.679-4.16-1.031-6.606c-0.182-1.213-0.401-2.518-0.54-3.855c-0.146-1.313-0.308-2.671-0.464-4.067
					c-0.135-1.387-0.31-2.813-0.481-4.271c-0.152-1.462-0.312-2.955-0.471-4.475c-0.294-3.051-0.598-6.203-0.907-9.405
					c-0.315-3.209-0.695-6.469-1.071-9.729c-0.78-6.52-1.589-13.05-2.258-19.188c-0.339-3.066-0.648-6.038-0.88-8.86
					c-0.114-1.411-0.224-2.784-0.331-4.113c-0.084-1.33-0.166-2.614-0.244-3.85c-0.164-2.466-0.221-4.735-0.312-6.74
					c-0.032-2.014-0.07-3.768-0.062-5.207c0.061-2.876,0.094-4.52,0.094-4.52L848.367,615.434z"/>
			</g>
			<path fill="#ABC9BB" d="M833.193,539.38c6.491,4.419-55.935,110.469,32.841,102.599c88.774-7.872,55.984-85.693,40.233-99.563
				c0-52.916-22.047-92.062-40.233-92.062C847.847,450.353,823.795,532.98,833.193,539.38z"/>
			<g>
				<path fill="#8F9391" d="M868.209,574.638c0,0,0.117,2.392,0.322,6.573c0.088,2.091,0.194,4.631,0.316,7.543
					c0.073,2.921,0.155,6.216,0.244,9.812c0.114,3.604,0.113,7.485,0.139,11.604c0.014,4.104,0.028,8.432,0.044,12.909
					c0.044,4.46,0.027,9.066,0.265,13.73c0.116,2.334,0.143,4.685,0.359,7.043c0.172,2.359,0.391,4.726,0.523,7.092l0.201,3.549
					c0.09,1.183,0.146,2.366,0.188,3.548c0.059,1.182,0.097,2.36,0.103,3.538c0.01,1.178,0.055,2.351,0.027,3.521
					c-0.008,1.184-0.039,2.314-0.026,3.524c0.026,1.173,0.051,2.34,0.077,3.5c0.053,2.352,0.028,4.617,0.022,6.868
					c-0.029,4.491-0.022,8.822-0.114,12.93c-0.077,4.107-0.105,7.987-0.203,11.57c-0.071,3.581-0.136,6.863-0.194,9.772
					c-0.042,2.908-0.08,5.443-0.109,7.531c-0.016,2.088-0.012,3.729,0.017,4.841c0.029,1.116,0.044,1.712,0.044,1.712l-0.761,0.113
					c0,0-0.132-0.59-0.38-1.696c-0.231-1.108-0.555-2.74-0.864-4.822c-0.668-4.163-1.393-10.128-2.076-17.287
					c-0.369-3.579-0.66-7.459-0.994-11.561c-0.353-4.101-0.601-8.426-0.924-12.889c-0.154-2.222-0.311-4.479-0.47-6.766
					c-0.083-1.144-0.167-2.292-0.25-3.447c-0.12-1.158-0.241-2.323-0.362-3.492c-0.432-4.717-0.808-9.507-0.699-14.333
					c0.107-4.824,0.242-9.639,0.495-14.38c0.139-2.368,0.167-4.723,0.327-7.036c0.141-2.313,0.281-4.601,0.418-6.849
					c0.278-4.486,0.69-8.812,0.999-12.904c0.304-4.089,0.675-7.963,0.926-11.524c0.265-3.569,0.506-6.843,0.721-9.742
					c0.172-2.91,0.321-5.447,0.444-7.537c0.276-4.179,0.435-6.565,0.435-6.565L868.209,574.638z"/>
			</g>
			<g id="XMLID_62_">
				<g>
					<path fill="#91BAAB" d="M942.336,666.041c-2.487-9.178-4.285-15.405-2.487-26.409c0.688-4.4,1.658-8.077,2.081-12.479
						c0.406-5.127,0.406-8.804,1.649-13.578c1.244-4.401,3.05-6.229,3.879-10.256c1.094-5.149,0.547-12.853,2.478-16.505
						c1.525-3.303,2.214-2.575,3.457-6.978c1.385-5.128,2.072-7.328,4.418-5.128c2.072,2.201,2.901,5.502,5.246,5.502
						c1.658,0,3.324-1.849,4.567,1.827c1.243,3.301,0.556,8.803,0.82,12.83c0.423,4.775,1.657,7.351,2.495,11.752
						c1.791,8.803,2.893,19.807,3.314,30.062c0.143,5.877-0.555,11.379-0.148,16.881c0.556,5.128,1.939,9.902,2.628,15.404
						c0.556,4.775,1.517,14.68,0.556,19.434c-1.111,6.25-4.833,4.774-6.904,6.25c-2.91,1.826-6.64,4.4-8.984,9.902
						c-1.235,2.928-3.167,12.104-4.7,12.104c-2.346-5.502-5.106-3.301-7.999-5.149c-1.807-1.101-3.315-2.927-5.255-2.927
						c-3.175,0-4.286,2.574-5.247-6.977C936.816,689.501,935.291,666.041,942.336,666.041z"/>
				</g>
			</g>
			<g>
				<path fill="#8F9391" d="M951.93,730.442c0,0-0.136-1.26-0.283-3.457c-0.146-2.198-0.324-5.337-0.412-9.099
					c-0.118-3.762-0.144-8.146-0.063-12.84c0.087-4.693,0.271-9.697,0.536-14.696c0.115-2.492,0.208-4.983,0.354-7.436
					c0.126-2.452,0.292-4.864,0.463-7.199c0.094-1.168,0.161-2.315,0.272-3.438c0.11-1.124,0.205-2.224,0.245-3.292
					c0.096-2.141,0.243-4.163,0.385-6.032c0.264-3.74,0.589-6.865,0.841-9.057c0.25-2.191,0.447-3.448,0.447-3.448
					s0.198,1.245,0.451,3.432c0.254,2.188,0.586,5.316,0.854,9.083c0.146,1.883,0.294,3.925,0.394,6.086
					c0.143,2.163,0.105,4.434,0.115,6.787c-0.01,2.354-0.027,4.784-0.088,7.254c-0.045,2.472-0.132,4.98-0.223,7.486
					c-0.276,4.994-0.636,9.982-1.056,14.658c-0.195,2.338-0.466,4.594-0.671,6.736c-0.198,2.144-0.446,4.166-0.677,6.034
					c-0.442,3.736-0.918,6.847-1.272,9.021C952.185,729.202,951.93,730.442,951.93,730.442z"/>
			</g>
		</g>
	</g>
	<g id="Foreground_Hill_Left">
		<g id="XMLID_63_">
			<g>
				<path fill="#BCCEAF" d="M238.168,1089.933v0.712H-0.952L-0.966,499.14l218.128,53.773
					c73.984,17.094,82.103,20.641,83.048,32.051c0.243,8.547,90.694,34.429,90.694,34.429l136.499,67.604
					c90.923,50.383,120.991,36.851,137.4,75.667c2.921,11.752,32.518,9.63,32.518,9.63l0.028-0.2
					c239.836,27.236,459.11,67.136,459.11,67.136L238.168,1089.933z"/>
			</g>
		</g>
	</g>
	<g id="Foreground_Trees_Left">
		<path fill="#ACCCBE" d="M328.389,441.217c3.779-3.335,15.942-46.893-13.365-74.078c-39.777-36.896-39.46,57.322-30.79,67.956
			c-3.386,37.282,7.487,66.066,18.525,67.059C313.798,503.146,308.893,458.424,328.389,441.217z"/>
		<g>
			<path fill="#8F9391" d="M300.74,598.175c0,0-0.066-0.689-0.188-1.983c-0.102-1.311-0.351-3.159-0.484-5.644
				c-0.112-2.478-0.314-5.528-0.416-8.939c-0.066-3.398-0.215-7.238-0.241-11.412c-0.02-4.175-0.105-8.697-0.063-13.474
				c0.016-4.776,0.022-9.812,0.105-15.02c0.051-5.208,0.138-10.586,0.257-16.05c0.128-5.464,0.258-11.014,0.388-16.563
				c0.166-5.547,0.333-11.095,0.496-16.556c0.198-5.459,0.392-10.832,0.581-16.031c0.225-5.197,0.442-10.222,0.648-14.986
				c0.242-4.763,0.429-9.267,0.68-13.422c0.233-4.155,0.44-7.964,0.683-11.338c0.113-1.687,0.219-3.266,0.317-4.725
				c0.123-1.458,0.235-2.798,0.336-4.008c0.104-1.21,0.198-2.289,0.279-3.229c0.114-0.937,0.21-1.733,0.289-2.379
				c0.156-1.291,0.24-1.979,0.24-1.979s-0.056,0.691-0.162,1.987c-0.053,0.647-0.118,1.446-0.194,2.384
				c-0.044,0.941-0.095,2.023-0.152,3.234c-0.054,1.211-0.113,2.552-0.178,4.013c-0.041,1.461-0.084,3.042-0.131,4.731
				c-0.11,3.376-0.167,7.188-0.236,11.346c-0.087,4.157-0.097,8.664-0.15,13.427c-0.019,4.766-0.038,9.789-0.058,14.987
				c0.017,5.197,0.034,10.568,0.051,16.026c0.052,5.457,0.104,11,0.156,16.542c0.088,5.542,0.177,11.083,0.264,16.539
				c0.096,5.453,0.221,10.819,0.374,16.01c0.122,5.191,0.312,10.206,0.484,14.959c0.146,4.757,0.408,9.239,0.591,13.382
				c0.189,4.142,0.485,7.916,0.682,11.271c0.233,3.338,0.535,6.16,0.728,8.525c0.215,2.355,0.548,4.28,0.697,5.559
				c0.174,1.288,0.266,1.976,0.266,1.976L300.74,598.175z"/>
		</g>
		<path fill="#ACCCBE" d="M203.177,416.877c33.306,14.028,32.84,102.597,32.84,102.597c5.606-73.87,32.695-55.352,40.236-99.562
			c-21.86-6.594,54.959-86.659-40.236-92.062C214.302,326.616,182.324,408.094,203.177,416.877z"/>
		<g>
			<path fill="#8F9391" d="M236.864,583.081c0,0,0.043-2.542,0.12-6.989c0.065-4.445,0.215-10.808,0.268-18.416
				c0.065-7.618,0.142-16.506,0.224-26.027c0.055-9.531,0.113-19.697,0.171-29.863c0.122-20.336,0.244-40.673,0.334-55.926
				c0.05-3.813,0.096-7.311,0.137-10.408c0.057-3.1,0.051-5.797,0.144-8.024c0.168-4.446,0.264-6.985,0.264-6.985
				s0.024,2.542,0.067,6.988c0.013,2.221,0.146,4.921,0.236,8.017c0.106,3.095,0.226,6.587,0.356,10.396
				c0.63,15.237,1.47,35.554,2.31,55.871c0.422,10.16,0.845,20.321,1.241,29.846c0.369,9.534,0.714,18.435,1.009,26.062
				c0.309,7.637,0.458,13.981,0.604,18.43c0.134,4.447,0.211,6.987,0.211,6.987L236.864,583.081z"/>
		</g>
		<g id="Big_Tree_54_">
			<g id="XMLID_200_">
				<g>
					<path fill="#8FB7A4" d="M-16.211,311.702c-2.903,4.881-0.104,10.461-0.205,15.265c-0.369,5.78-3.391,9.84-4.967,15.581
						c-3.544,11.612-4.803,25.066-4.28,37.038c0.567,6.77,3.39,12.342,3.139,18.942c-0.702,6.308-3.754,12.985-4.763,19.839
						c-0.759,5.911-1.807,17.991,1.628,22.472c4.091,6.034,14.172,0.914,20.147,0.662c8.325-0.622,19.066-1.167,26.453,2.878
						c3.917,2.156,10.756,10.737,14.976,9.325c5.595-8.389,13.592-8.458,21.318-13.233c4.798-2.909,8.698-6.377,14.065-8.173
						c8.785-2.938,12.254-1.051,13.383-12.741c1.859-14.958,2.237-42.871-17.259-36.348c5.387-12.672,9.35-21.375,2.581-32.143
						c-2.621-4.336-5.902-7.591-7.766-12.181c-1.982-5.41-2.58-9.563-6.798-13.808c-4.157-3.822-9.432-4.221-12.381-8.004
						c-3.889-4.798-3.606-14.016-9.569-16.348c-4.735-2.326-6.52-0.868-10.677-4.69c-4.666-4.512-6.928-6.362-13.083-1.695
						c-5.375,4.405-7.132,8.903-13.623,11.075C-8.481,306.952-13.369,306.398-16.211,311.702z"/>
				</g>
			</g>
			<g>
				<path fill="#8F9391" d="M28.747,550.214c0,0,0.027-2.41,0.074-6.628c0.024-2.107,0.052-4.669,0.085-7.607
					c0.017-1.469,0.034-3.031,0.052-4.679c0.014-1.646,0.031-3.377,0.117-5.209c0.137-3.647,0.286-7.6,0.442-11.778
					c0.079-2.088,0.16-4.231,0.243-6.424c0.128-2.181,0.26-4.408,0.394-6.675c0.276-4.528,0.561-9.206,0.851-13.96
					c0.362-4.742,0.73-9.559,1.098-14.376c0.348-4.819,0.795-9.618,1.186-14.351c0.401-4.729,0.796-9.383,1.178-13.886
					c0.379-4.501,0.745-8.853,1.092-12.979c0.312-4.127,0.607-8.029,0.879-11.631c0.136-1.802,0.267-3.529,0.391-5.171
					c0.098-1.644,0.19-3.202,0.278-4.667c0.17-2.932,0.318-5.486,0.44-7.592c0.244-4.211,0.383-6.618,0.383-6.618
					s0.049,2.41,0.135,6.626c0.043,2.109,0.095,4.671,0.155,7.609c0.027,1.471,0.057,3.034,0.088,4.684
					c0.004,1.647,0.009,3.381,0.014,5.188c0.01,3.619,0.021,7.539,0.033,11.687c-0.023,4.145-0.048,8.515-0.073,13.036
					c-0.029,4.519-0.059,9.188-0.089,13.934c-0.019,4.741-0.089,9.562-0.06,14.372c0.01,4.81,0.02,9.62,0.029,14.354
					c0.083,4.728,0.164,9.379,0.242,13.882c0.043,2.249,0.086,4.46,0.128,6.625c0.087,2.154,0.173,4.263,0.257,6.315
					c0.166,4.1,0.323,7.975,0.468,11.552c0.054,1.781,0.172,3.511,0.288,5.156c0.11,1.645,0.215,3.203,0.313,4.669
					c0.197,2.932,0.368,5.486,0.51,7.59c0.282,4.208,0.444,6.613,0.444,6.613L28.747,550.214z"/>
			</g>
			<g>
				<path fill="#8F9391" d="M35.326,459.814c0,0-0.072-0.316-0.207-0.908c-0.128-0.604-0.348-1.438-0.569-2.589
					c-0.195-1.185-0.432-2.621-0.704-4.27c-0.202-1.586-0.43-3.375-0.678-5.326c-0.205-1.943-0.426-4.051-0.661-6.278
					c-0.201-2.226-0.413-4.571-0.632-6.999c-0.404-4.854-0.797-10.026-1.147-15.199c-1.41-20.691-2.289-41.387-2.289-41.387
					s2.359,20.587,5.242,41.08c0.717,5.122,1.478,10.235,2.224,15.02c0.389,2.387,0.766,4.694,1.123,6.881
					c0.388,2.176,0.755,4.233,1.094,6.132c0.377,1.879,0.724,3.603,1.03,5.129c0.342,1.445,0.64,2.705,0.886,3.742
					c0.279,1.054,0.575,1.927,0.741,2.5c0.177,0.581,0.271,0.891,0.271,0.891L35.326,459.814z"/>
			</g>
			<g>
				<path fill="#8F9391" d="M32.545,448.954c0,0-0.094-0.782-0.258-2.151c-0.041-0.342-0.086-0.721-0.136-1.133
					c-0.025-0.206-0.051-0.421-0.077-0.644c-0.044-0.192-0.089-0.392-0.136-0.597c-0.182-0.832-0.387-1.77-0.611-2.794
					c-0.331-1.065-0.689-2.222-1.067-3.442c-0.417-1.221-0.964-2.481-1.474-3.811c-0.569-1.307-1.22-2.639-1.856-4.009
					c-0.722-1.328-1.412-2.708-2.187-4.047c-0.799-1.323-1.545-2.688-2.396-3.959c-0.82-1.293-1.644-2.56-2.491-3.752
					c-0.818-1.215-1.666-2.351-2.462-3.435c-0.792-1.089-1.593-2.076-2.308-3.014c-2.93-3.685-5.088-5.988-5.088-5.988
					s2.451,1.982,5.888,5.258c0.841,0.836,1.782,1.717,2.727,2.697c0.949,0.978,1.96,2.001,2.955,3.111
					c1.021,1.087,2.032,2.251,3.047,3.45c1.045,1.175,2,2.459,3.008,3.707c0.987,1.265,1.899,2.592,2.84,3.873
					c0.864,1.335,1.74,2.641,2.536,3.943c0.742,1.338,1.511,2.609,2.15,3.874c0.605,1.287,1.193,2.493,1.707,3.646
					c0.451,1.234,0.865,2.368,1.231,3.372c0.09,0.253,0.177,0.499,0.261,0.734c0.057,0.217,0.112,0.426,0.165,0.627
					c0.105,0.402,0.202,0.771,0.29,1.104c0.351,1.333,0.55,2.095,0.55,2.095L32.545,448.954z"/>
			</g>
		</g>
		<g id="Big_Tree_53_">
			<g id="XMLID_199_">
				<g>
					<path fill="#8BAFA0" d="M53.191,458.021c1.859-14.959,2.237-42.871-17.259-36.348c5.387-12.672,9.35-21.375,2.581-32.143
						c-2.62-4.336-5.902-7.591-7.766-12.181c-1.982-5.41-2.581-9.563-6.799-13.808c-4.157-3.822-9.432-4.221-12.381-8.004
						c-3.889-4.798-3.606-14.016-9.568-16.348c-4.735-2.326-6.521-0.868-10.678-4.69c-4.666-4.512-6.928-6.362-13.083-1.696
						c-5.376,4.405-7.132,8.903-13.623,11.075c-4.587,1.535-9.476,0.981-12.318,6.285c-2.903,4.881-0.104,10.461-0.205,15.265
						c-0.369,5.78-3.39,9.84-4.967,15.582c-3.544,11.612-4.803,25.066-4.279,37.038c0.567,6.771,3.389,12.342,3.138,18.942
						c-0.702,6.308-3.754,12.985-4.762,19.84c-0.759,5.91-1.807,17.991,1.627,22.472c4.091,6.034,14.173,0.914,20.147,0.661
						c8.325-0.622,19.066-1.166,26.453,2.878c3.917,2.156,10.755,10.737,14.976,9.325c5.595-8.389,13.591-8.458,21.318-13.232
						c4.798-2.908,8.698-6.377,14.065-8.173C48.593,467.823,52.062,469.712,53.191,458.021z"/>
				</g>
			</g>
			<g>
				<path fill="#8F9391" d="M-1.044,589.325c0,0-0.274-2.396-0.752-6.585c-0.22-2.128-0.587-4.541-0.768-7.722
					c-0.11-1.548-0.228-3.194-0.351-4.932c-0.061-0.866-0.123-1.754-0.186-2.663c-0.078-0.912-0.118-1.835-0.127-2.768
					c-0.043-1.87-0.089-3.817-0.136-5.834c-0.05-2.014-0.114-4.09-0.034-6.229c0.045-2.134,0.091-4.325,0.138-6.565
					c0.018-2.237,0.244-4.516,0.361-6.83c0.213-4.636,0.762-9.383,1.228-14.198c0.62-4.793,1.195-9.663,2.004-14.47
					c0.723-4.829,1.617-9.6,2.453-14.3c0.897-4.67,1.78-9.266,2.635-13.713c0.853-4.431,1.677-8.714,2.458-12.774
					c0.719-4.061,1.469-7.901,2.012-11.456c0.288-1.779,0.563-3.483,0.826-5.104c0.25-1.623,0.438-3.167,0.642-4.618
					c0.397-2.901,0.754-5.436,0.938-7.53c0.431-4.193,0.678-6.59,0.678-6.59s0.062,2.409,0.172,6.628
					c0.087,2.114,0.057,4.677,0.035,7.623c-0.016,1.472-0.005,3.043-0.046,4.694c-0.053,1.652-0.108,3.39-0.167,5.201
					c-0.084,3.634-0.336,7.546-0.532,11.703c-0.255,4.14-0.525,8.507-0.804,13.023c-0.277,4.5-0.563,9.15-0.854,13.876
					c-0.225,4.71-0.497,9.49-0.591,14.249c-0.185,4.763-0.128,9.503-0.132,14.157c0.152,4.648,0.208,9.212,0.575,13.6
					c0.173,2.193,0.23,4.353,0.488,6.452c0.227,2.096,0.448,4.146,0.664,6.144c0.179,1.996,0.492,3.923,0.781,5.785
					c0.284,1.858,0.558,3.655,0.821,5.38c0.12,0.867,0.265,1.701,0.44,2.497c0.162,0.803,0.32,1.586,0.475,2.351
					c0.306,1.523,0.596,2.97,0.869,4.327c0.473,2.649,1.203,5.236,1.679,7.258c1.012,4.096,1.589,6.436,1.589,6.436L-1.044,589.325z
					"/>
			</g>
			<g>
				<path fill="#8F9391" d="M3.825,498.274c0,0-0.072-0.316-0.207-0.908c-0.128-0.604-0.348-1.438-0.569-2.589
					c-0.195-1.185-0.432-2.621-0.704-4.27c-0.202-1.585-0.43-3.375-0.678-5.326c-0.205-1.943-0.427-4.051-0.661-6.278
					c-0.201-2.226-0.413-4.571-0.632-6.999c-0.404-4.854-0.797-10.026-1.147-15.199c-1.41-20.692-2.288-41.387-2.288-41.387
					s2.359,20.587,5.241,41.079c0.717,5.122,1.478,10.236,2.224,15.021c0.39,2.387,0.766,4.693,1.123,6.881
					c0.389,2.176,0.755,4.233,1.094,6.132c0.378,1.879,0.724,3.603,1.031,5.129c0.342,1.445,0.64,2.705,0.886,3.743
					c0.279,1.055,0.575,1.927,0.741,2.5c0.177,0.58,0.271,0.891,0.271,0.891L3.825,498.274z"/>
			</g>
			<g>
				<path fill="#8F9391" d="M1.045,487.414c0,0-0.094-0.782-0.258-2.151c-0.041-0.342-0.086-0.721-0.136-1.133
					c-0.024-0.206-0.05-0.421-0.077-0.643c-0.043-0.192-0.089-0.392-0.135-0.598c-0.182-0.832-0.388-1.77-0.611-2.794
					c-0.331-1.065-0.689-2.222-1.068-3.442c-0.417-1.221-0.964-2.481-1.474-3.811c-0.569-1.307-1.22-2.639-1.856-4.009
					c-0.722-1.328-1.412-2.708-2.187-4.047c-0.799-1.323-1.544-2.688-2.396-3.96c-0.82-1.292-1.644-2.56-2.491-3.752
					c-0.819-1.215-1.666-2.351-2.463-3.436c-0.792-1.088-1.593-2.076-2.307-3.014c-2.93-3.685-5.088-5.988-5.088-5.988
					s2.451,1.982,5.888,5.259c0.841,0.835,1.782,1.716,2.727,2.696c0.949,0.978,1.96,2.002,2.955,3.111
					c1.021,1.087,2.032,2.251,3.048,3.45c1.045,1.175,1.999,2.459,3.008,3.707c0.987,1.265,1.899,2.592,2.84,3.873
					c0.864,1.335,1.74,2.641,2.536,3.943c0.742,1.338,1.511,2.609,2.15,3.874c0.605,1.287,1.193,2.493,1.708,3.646
					c0.451,1.234,0.864,2.368,1.231,3.371c0.09,0.254,0.177,0.499,0.261,0.735c0.057,0.217,0.112,0.426,0.165,0.627
					c0.105,0.402,0.203,0.771,0.29,1.104c0.35,1.334,0.55,2.096,0.55,2.096L1.045,487.414z"/>
			</g>
		</g>
		<g id="Big_Tree_52_">
			<g id="XMLID_197_">
				<g>
					<path fill="#91BAAB" d="M2.14,457.909c-3.321-17.441-3.995-49.986,30.824-42.38c-9.62-14.775-16.698-24.922-4.609-37.479
						c4.68-5.056,10.542-8.852,13.87-14.203c3.539-6.309,4.608-11.15,12.141-16.1c7.424-4.457,16.845-4.921,22.112-9.332
						c6.945-5.595,6.441-16.342,17.088-19.061c8.457-2.711,11.645-1.012,19.069-5.469c8.332-5.261,12.372-7.418,23.366-1.977
						c9.601,5.137,12.737,10.38,24.329,12.913c8.193,1.79,16.923,1.144,21.999,7.328c5.185,5.691,0.185,12.197,0.365,17.798
						c0.659,6.739,6.055,11.474,8.871,18.167c6.329,13.54,8.577,29.227,7.643,43.186c-1.013,7.895-6.053,14.392-5.605,22.086
						c1.253,7.355,6.706,15.142,8.505,23.133c1.356,6.892,3.228,20.978-2.907,26.201c-7.307,7.035-25.311,1.066-35.98,0.771
						c-14.868-0.727-34.05-1.36-47.243,3.355c-6.996,2.515-19.208,12.521-26.746,10.873c-9.993-9.781-24.273-9.86-38.073-15.429
						c-8.569-3.392-15.534-7.437-25.119-9.529C10.352,469.337,4.155,471.54,2.14,457.909z"/>
				</g>
			</g>
			<g>
				<path fill="#8F9391" d="M67.915,604.917c0,0,0.253-0.662,0.727-1.902c0.237-0.62,0.529-1.385,0.872-2.283
					c0.172-0.45,0.356-0.934,0.553-1.448c0.201-0.521,0.412-1.072,0.58-1.574c0.368-1.048,0.775-2.208,1.219-3.472
					c0.219-0.641,0.466-1.279,0.69-1.992c0.222-0.717,0.452-1.46,0.69-2.228c0.989-3.066,1.955-6.565,2.921-10.42
					c0.933-3.857,1.86-8.072,2.59-12.592c0.807-4.511,1.332-9.329,1.81-14.354c0.384-5.03,0.638-10.273,0.657-15.646
					c0.002-5.372-0.166-10.869-0.498-16.396c-0.691-11.058-1.985-22.233-3.229-32.784c-1.254-10.548-2.365-20.479-2.98-29.01
					c-0.321-4.266-0.509-8.183-0.632-11.649c-0.092-3.471-0.143-6.49-0.103-8.978c-0.008-2.484,0.091-4.437,0.129-5.764
					c0.044-1.326,0.068-2.033,0.068-2.033s0.087,0.702,0.252,2.021c0.17,1.316,0.378,3.248,0.774,5.689
					c0.349,2.444,0.87,5.399,1.499,8.772c0.66,3.371,1.45,7.158,2.424,11.266c1.923,8.223,4.54,17.709,7.434,27.928
					c2.883,10.219,5.97,21.214,8.502,32.52c1.251,5.656,2.348,11.388,3.253,17.097c0.889,5.714,1.522,11.411,1.975,16.97
					c0.358,5.562,0.62,10.983,0.529,16.142c-0.013,5.16-0.292,10.05-0.65,14.562c-0.392,4.506-0.858,8.644-1.417,12.283
					c-0.132,0.913-0.259,1.797-0.382,2.649c-0.127,0.855-0.3,1.708-0.44,2.514c-0.297,1.622-0.569,3.111-0.815,4.456
					c-0.124,0.699-0.245,1.27-0.358,1.804c-0.113,0.54-0.22,1.046-0.318,1.518c-0.198,0.941-0.366,1.743-0.503,2.394
					c-0.272,1.3-0.418,1.991-0.418,1.991L67.915,604.917z"/>
			</g>
			<g>
				<path fill="#8F9391" d="M81.304,502.128c0,0,0.171-0.341,0.492-0.979c0.382-0.719,0.625-1.37,1.093-2.465
					c0.22-0.586,0.464-1.234,0.729-1.94c0.248-0.731,0.516-1.522,0.802-2.367c0.549-1.715,1.141-3.675,1.753-5.839
					c0.604-2.169,1.233-4.536,1.869-7.055c0.629-2.521,1.275-5.19,1.917-7.963c1.283-5.544,2.563-11.491,3.788-17.458
					c4.904-23.866,8.872-47.968,8.872-47.968s-1.837,24.34-4.641,48.646c-0.7,6.077-1.458,12.151-2.259,17.85
					c-0.4,2.849-0.815,5.604-1.229,8.216c-0.42,2.614-0.851,5.087-1.275,7.374c-0.435,2.287-0.873,4.391-1.295,6.263
					c-0.229,0.939-0.443,1.819-0.641,2.633c-0.229,0.822-0.439,1.58-0.629,2.263c-0.442,1.412-0.889,2.744-1.136,3.312
					c-0.264,0.664-0.404,1.02-0.404,1.02L81.304,502.128z"/>
			</g>
			<g>
				<path fill="#8F9391" d="M84.351,490.213c0,0,0.083-0.257,0.241-0.739c0.078-0.24,0.175-0.538,0.289-0.888
					c0.057-0.174,0.118-0.362,0.183-0.562c0.093-0.242,0.192-0.499,0.296-0.771c0.217-0.543,0.458-1.145,0.719-1.8
					c0.271-0.627,0.589-1.217,0.917-1.893c0.316-0.675,0.71-1.345,1.123-2.049c0.403-0.713,0.843-1.444,1.342-2.169
					c0.484-0.737,0.988-1.504,1.558-2.247c0.555-0.757,1.128-1.537,1.761-2.29c0.616-0.771,1.257-1.549,1.945-2.307
					c0.67-0.777,1.375-1.545,2.11-2.302c1.447-1.538,3.01-3.037,4.62-4.521c1.612-1.479,3.292-2.917,4.994-4.317
					c6.829-5.575,14.103-10.381,19.677-13.744c5.569-3.375,9.427-5.334,9.427-5.334s-3.537,2.498-8.524,6.608
					c-4.991,4.096-11.417,9.843-17.149,16.104c-1.425,1.569-2.816,3.162-4.122,4.766c-1.302,1.606-2.547,3.205-3.659,4.797
					c-0.57,0.788-1.105,1.573-1.601,2.355c-0.519,0.77-0.983,1.541-1.424,2.293c-0.462,0.743-0.853,1.487-1.232,2.202
					c-0.399,0.709-0.722,1.411-1.033,2.081c-0.331,0.665-0.599,1.312-0.834,1.928c-0.248,0.613-0.487,1.191-0.646,1.743
					c-0.168,0.542-0.364,1.072-0.479,1.514c-0.1,0.423-0.192,0.812-0.275,1.163c-0.044,0.176-0.085,0.343-0.125,0.5
					c-0.036,0.208-0.069,0.402-0.1,0.583c-0.062,0.362-0.115,0.67-0.158,0.92c-0.085,0.499-0.131,0.766-0.131,0.766L84.351,490.213z
					"/>
			</g>
		</g>
	</g>
</g>
<g id="Foreground_hill_Trees">
	<g id="_x33_">
		<g id="XMLID_192_">
			<g>
				<path fill="#ACCCBE" d="M913.788,851.681c0.91,2.919,2.486,8.999,0.91,11.933c-1.82,3.824-7.933,2.933-11.328,3.824
					c-4.754,1.135-10.866,2.701-14.71,6.079c-2.038,1.812-5.202,7.434-7.702,7.434c-3.844-3.379-8.367-2.027-13.121-3.148
					c-2.948-0.676-5.433-1.798-8.612-1.798c-5.201,0-7.008,1.567-8.598-4.283c-2.269-7.432-4.754-21.85,6.792-21.85
					c-4.075-5.621-7.022-9.459-4.075-16.215c1.127-2.703,2.717-4.946,3.396-7.648c0.679-3.162,0.679-5.405,2.716-8.337
					c2.038-2.703,4.985-3.824,6.343-6.311c1.807-3.148,0.896-7.878,4.075-10.136c2.486-2.025,3.613-1.566,5.65-4.27
					c2.269-3.162,3.396-4.514,7.253-3.162c3.396,1.352,4.754,3.378,8.598,3.378c2.717,0,5.433-1.121,7.471,1.135
					c2.038,2.027,0.91,5.405,1.358,7.878c0.679,2.934,2.716,4.5,4.075,7.202c2.946,5.405,4.754,12.162,5.433,18.473
					c0.231,3.607-0.91,6.985-0.231,10.363C910.393,845.37,912.661,848.303,913.788,851.681z"/>
			</g>
		</g>
		<g>
			<path fill="#8F9391" d="M883.225,889.974c0,0-0.145-0.804-0.289-2.196c-0.053-0.699-0.177-1.543-0.297-2.48
				c-0.106-0.939-0.22-1.988-0.387-3.145c-0.127-1.149-0.303-2.391-0.485-3.696c-0.146-1.305-0.4-2.681-0.571-4.099
				c-0.233-1.423-0.424-2.887-0.658-4.382c-0.221-1.497-0.445-3.019-0.669-4.54c-0.899-6.101-1.597-12.354-1.602-17.134
				c-0.023-2.383,0.097-4.386,0.252-5.787c0.145-1.398,0.29-2.198,0.29-2.198s0.325,0.754,0.78,2.071
				c0.466,1.318,1.099,3.191,1.783,5.445c0.675,2.253,1.421,4.892,2.097,7.748c0.337,1.433,0.677,2.912,0.961,4.438
				c0.313,1.516,0.547,3.083,0.799,4.644c0.195,1.576,0.416,3.146,0.521,4.717c0.151,1.561,0.186,3.117,0.221,4.615
				c-0.016,1.509-0.017,2.959-0.145,4.343c-0.062,0.688-0.122,1.359-0.181,2.007c-0.081,0.647-0.176,1.272-0.271,1.869
				c-0.174,1.19-0.416,2.288-0.662,3.249c-0.222,0.966-0.478,1.778-0.714,2.437C883.547,889.224,883.225,889.974,883.225,889.974z"
				/>
		</g>
		<path fill="#91BAAB" d="M929.252,778.565c3.752,1.933-32.333,48.291,18.984,44.85c51.315-3.439,32.36-37.459,23.257-43.523
			c0-23.133-12.743-40.245-23.257-40.245S923.819,775.768,929.252,778.565z"/>
		<g>
			<path fill="#8F9391" d="M949.464,793.979c0,0,0.188,4.562,0.385,11.401c0.114,3.421,0.218,7.412,0.284,11.688
				c0.047,2.137,0.061,4.35,0.139,6.589c0.084,2.236,0.168,4.51,0.253,6.783c0.104,2.271,0.169,4.543,0.31,6.773
				c0.214,2.223,0.396,4.409,0.514,6.526c0.097,2.119,0.16,4.168,0.146,6.118c0.003,0.478-0.009,0.991,0.007,1.419
				c0.021,0.476,0.042,0.943,0.062,1.404c0.034,0.912,0.067,1.793,0.1,2.639c0.041,0.861,0.058,1.688,0.052,2.488
				c0.005,0.794,0.006,1.554-0.049,2.272c-0.026,0.712-0.096,1.386-0.171,2.006c-0.065,0.618-0.157,1.183-0.276,1.692
				c-0.186,1.018-0.441,1.792-0.643,2.31c-0.188,0.516-0.287,0.789-0.287,0.789l-0.377-0.088c0,0-0.001-0.287-0.003-0.825
				c0.002-0.264,0.006-0.589,0.009-0.971c-0.006-0.381-0.063-0.824-0.083-1.311c-0.014-0.483-0.077-1.021-0.163-1.606
				c-0.061-0.582-0.137-1.209-0.265-1.883c-0.191-1.342-0.521-2.855-0.82-4.533c-0.152-0.854-0.312-1.744-0.477-2.666
				c-0.064-0.456-0.13-0.921-0.196-1.394c-0.07-0.521-0.1-0.974-0.151-1.475c-0.2-1.964-0.333-4.042-0.438-6.193
				c-0.085-2.151-0.112-4.378-0.111-6.638c0.072-2.254,0.145-4.543,0.218-6.833c0.062-2.286,0.122-4.573,0.182-6.824
				c0.063-2.249,0.191-4.453,0.279-6.591c0.177-4.272,0.415-8.261,0.581-11.679c0.331-6.838,0.606-11.396,0.606-11.396
				L949.464,793.979z"/>
		</g>
	</g>
	<g id="_x32_">
		<path fill="#ACCCBE" d="M917.028,789.367c3.752,2.469-32.333,61.693,18.983,57.299c51.316-4.396,32.361-47.856,23.256-55.604
			c0-29.553-12.742-51.415-23.256-51.415C925.499,739.646,911.595,785.794,917.028,789.367z"/>
		<g>
			<path fill="#8F9391" d="M937.265,809.058c0,0,0.218,5.824,0.449,14.56c0.132,4.367,0.258,9.463,0.341,14.922
				c0.057,2.728,0.078,5.552,0.166,8.413c0.092,2.858,0.187,5.764,0.28,8.669c0.115,2.903,0.191,5.808,0.343,8.662
				c0.229,2.848,0.421,5.646,0.541,8.358c0.097,2.714,0.156,5.337,0.128,7.83c0,0.614-0.015,1.261-0.002,1.823
				c0.019,0.608,0.036,1.207,0.055,1.796c0.025,1.168,0.051,2.297,0.074,3.381c0.034,1.1,0.041,2.15,0.025,3.166
				c-0.005,1.009-0.011,1.971-0.078,2.878c-0.037,0.903-0.115,1.755-0.199,2.538c-0.075,0.782-0.176,1.499-0.304,2.146
				c-0.114,0.646-0.217,1.217-0.334,1.711c-0.134,0.493-0.25,0.909-0.354,1.243c-0.2,0.666-0.308,1.021-0.308,1.021l-0.43-0.078
				c0,0-0.007-0.365-0.021-1.053c-0.003-0.338-0.006-0.756-0.01-1.246c-0.016-0.489-0.081-1.056-0.108-1.681
				c-0.021-0.624-0.097-1.316-0.191-2.07c-0.069-0.751-0.156-1.56-0.295-2.429c-0.209-1.731-0.563-3.688-0.878-5.843
				c-0.16-1.093-0.327-2.229-0.5-3.406c-0.068-0.585-0.136-1.18-0.206-1.784c-0.07-0.647-0.104-1.237-0.158-1.873
				c-0.214-2.506-0.35-5.155-0.457-7.896c-0.083-2.742-0.099-5.579-0.084-8.458c0.084-2.874,0.169-5.794,0.254-8.714
				c0.07-2.918,0.141-5.835,0.209-8.705c0.073-2.87,0.21-5.687,0.309-8.416c0.11-2.729,0.218-5.365,0.318-7.866
				c0.113-2.501,0.22-4.866,0.318-7.049c0.365-8.73,0.671-14.552,0.67-14.552L937.265,809.058z"/>
		</g>
	</g>
	<g id="_x31_">
		<path fill="#ACCCBE" d="M766.5,728.16c6.158,4.192-53.06,104.791,31.153,97.325c84.213-7.467,53.107-81.289,38.168-94.446
			c0-50.197-20.915-87.332-38.168-87.332S757.585,722.091,766.5,728.16z"/>
		<g>
			<path fill="#8F9391" d="M799.717,761.606c0,0,0.083,2.473,0.23,6.8c0.126,4.327,0.307,10.509,0.522,17.927
				c0.1,3.708,0.206,7.727,0.319,11.977c0.09,4.249,0.185,8.73,0.284,13.366c0.094,4.635,0.191,9.424,0.291,14.29
				c0.141,4.857,0.282,9.791,0.426,14.727c0.192,4.932,0.319,9.864,0.572,14.714c0.377,4.838,0.696,9.596,0.894,14.203
				c0.157,4.608,0.253,9.065,0.205,13.303c0,1.044-0.026,2.139-0.006,3.1c0.029,1.032,0.058,2.049,0.086,3.049
				c0.041,1.985,0.08,3.903,0.118,5.745c0.054,1.865,0.062,3.651,0.034,5.374c-0.012,1.711-0.022,3.344-0.136,4.886
				c-0.062,1.531-0.192,2.976-0.333,4.306c-0.074,0.663-0.146,1.299-0.215,1.907c-0.088,0.606-0.2,1.187-0.291,1.733
				c-0.188,1.097-0.359,2.066-0.555,2.905c-0.222,0.838-0.414,1.545-0.585,2.113c-0.332,1.132-0.509,1.734-0.509,1.734l-0.72-0.127
				c0,0-0.014-0.622-0.04-1.787c-0.019-0.579-0.021-1.29-0.021-2.116c-0.028-0.832-0.137-1.794-0.185-2.856
				c-0.036-0.533-0.058-1.09-0.109-1.677c-0.067-0.587-0.138-1.202-0.212-1.843c-0.116-1.276-0.26-2.653-0.491-4.132
				c-0.348-2.942-0.933-6.27-1.454-9.934c-0.265-1.854-0.541-3.786-0.826-5.785c-0.111-0.994-0.225-2.005-0.34-3.031
				c-0.114-1.099-0.171-2.102-0.262-3.18c-0.354-4.256-0.579-8.754-0.753-13.41c-0.137-4.655-0.16-9.473-0.132-14.36
				c0.14-4.882,0.282-9.839,0.425-14.798c0.104-4.953,0.208-9.907,0.31-14.784c0.099-4.875,0.352-9.657,0.524-14.293
				c0.396-9.27,0.769-17.918,1.087-25.333c0.325-7.414,0.596-13.595,0.786-17.919c0.21-4.324,0.331-6.797,0.331-6.797
				L799.717,761.606z"/>
		</g>
	</g>
</g>
</svg>
