<?xml version="1.0" encoding="utf-8"?>
<!-- Generator: Adobe Illustrator 16.0.3, SVG Export Plug-In . SVG Version: 6.00 Build 0)  -->
<!DOCTYPE svg PUBLIC "-//W3C//DTD SVG 1.1//EN" "http://www.w3.org/Graphics/SVG/1.1/DTD/svg11.dtd">
<svg version="1.1" id="Layer_1" xmlns="http://www.w3.org/2000/svg" xmlns:xlink="http://www.w3.org/1999/xlink" x="0px" y="0px"
	 width="1920px" height="1080px" viewBox="0 0 1920 1080" enable-background="new 0 0 1920 1080" xml:space="preserve">
<g id="Foreground_Hill_1">
	<g id="Trees">
		<path id="Right" fill="#A5B3AB" d="M1490.964,897.066c-0.021,2.387-0.006,4.785-0.179,7.064
			c-0.361,4.755-1.096,9.485-2.219,14.122c-2.113,8.725-5.601,17.183-10.629,24.651c-8.443,12.539-21.806,22.398-37.48,22.398
			c-8.354,0-16.412-2.853-23.221-7.596c-3.771-2.625-6.64-5.883-9.895-9.048c-3.368-3.273-7.767-2.454-12.319-4.039
			c-2.638-0.916-5.721-0.693-8.157-1.673c0.019-1.812-1.059-2.094-2.09-3.312c-0.966-1.139-1.859-3.251-2.7-4.077
			c-2.456-2.416-5.965-1.555-8.004-5.084c1.903-0.406,3.908-0.942,5.896-1.378c0.151-3.464-0.065-7.155,1.123-10.354
			c0.893,0.146,2.048-0.257,2.944-0.111c-0.433-4.068,5.182-3.521,7.428-5.624c-4.1-0.291-6.279-1.43-9.754-3.7
			c-4.825-3.149-1.535-5.778,3.021-7.244c-5.263-4.551-11.626-0.806-17.604-1.666c3.854-7.446,12.646-5.618,19.317-6.11
			c-2.095-0.63-6.116-1.707-6.67-4.331c2.732-1.014,4.339-1.072,5.933-3.382c1.22-1.768,0.582-3.972,3.42-4.434
			c0.245-4.79,0.348-8.663-2.308-12.709c0.806-0.03,1.8-0.229,2.614-0.066c-2.817,0.345-12.828-1.707-13.453-4.334
			c6.236-1.456,14.519,1.382,19.6-2.188c0.047-3.507-0.378-7.101-0.254-10.657c6.409,0.297,6.584-4.016,10.492-7.146
			c1.519-1.216,3.826-2.163,5.355-3.717c0.864-0.878,1.617-2.668,2.527-3.375c2.302-1.787,1.615-0.137,3.66-0.393
			c2.838-0.352,3.285-2.386,5.433-4.341c2.033-1.852,3.586-1.343,5.782-2.617c3.125-1.812,6.583-8.398,10.781-3.497
			c1.423-3.016,4.925-5.015,7.821-6.351c-0.47,1.936-3.089,3.062-2.594,5.312c3.234,0.35,2.347,4.019,5.713,3.444
			c3.482-0.593,3.288-4.738,3.447-7.388c2.771-0.047,4.688,5.321,8.047,5.739c-0.212,1.312-1.022,2.309-0.966,3.665
			c0.059,1.438,1.256,2.501,1.391,4.005c2.463-0.081,5.346,1.451,7.515,1.325c2.003-0.114,2.498-1.584,4.286-1.491
			c0.222,4.312-0.459,8.319-0.236,12.664c2.586,0.028,6.206,1.301,5.779,4.385c2.934,1.199,5.22-0.896,8.038-0.564
			c0.703,2.557-2.354,3.363-2.663,5.692c-0.41,3.101,2.304,3.411,0.108,6.438c3.342-0.348,7.129-2.535,10.355-0.64
			c0.927,4.975-8.202,4.538-5.694,8.995c1.134,2.015,3.562,2.337,5.294,3.462c-3.608-0.062-3.917-0.563-4.973,2.349
			c-0.604,1.667-1.394,6.212-0.266,7.775c1.628,2.254,4.328,0.154,5.97,1.769c2.721,2.679-3.105,2.194-4.296,1.977
			C1491.057,892.02,1490.989,894.536,1490.964,897.066z"/>
		<path id="Left" fill="#A5B3AB" d="M1395.295,1004.661c0,29.757-19.84,53.881-44.312,53.881c-0.494,0-0.989-0.01-1.483-0.028
			c-6.959-0.276-13.702-2.585-19.505-6.386c-2.97-1.946-5.688-4.262-8.121-6.84c-1.254-1.329-2.431-2.729-3.531-4.187
			c-0.482-0.642-0.986-1.771-1.641-2.229c-0.561-0.396-1.376-0.431-1.991-0.845c-0.384-0.26-0.901-0.936-1.286-1.094
			c-0.322-0.137-0.787,0.104-1.115-0.01c-1.084-0.373-0.726-0.56-1.021-1.568c-0.326-1.109-0.774-0.995-1.366-1.668
			c-0.509-0.577-0.502-1.41-0.896-2.058c-0.753-1.239-1.486-0.573-2.571-1.096c-0.982-0.473-0.801-1.279-1.169-2.261
			c-0.564-1.502-1.785-3.086-1.796-4.732c-1.812-1.062-6.749,1.102-6.668-1.709c0.041-1.45,1.168-1.766,0.204-3.418
			c-0.533-0.916-0.953-1.143-0.896-2.264c0.088-1.725,1.172-2.937,1.931-4.384c0.03,0.068-0.012,0.136,0.03,0.207
			c0.427-0.8,0.938-1.537,1.446-2.291c0.422-0.628,1.943-2.051,1.818-2.834c-0.132-0.821-0.855-0.647-1.573-0.966
			c-0.812-0.356-2.37-1.507-1.041-2.188c0.889-0.456,1.703,0.53,2.155-0.552c0.252-0.604-0.038-1.75-0.005-2.396
			c0.041-0.812,0.198-1.598,0.23-2.414c0.029-0.78-0.005-1.542,0.137-2.313c0.104-0.558,0.562-1.352,0.549-1.891
			c-0.065-2.714-6.576-1.008-8.257-1.141c0.118-1.979-0.25-3.923-0.036-5.989c0.229-2.225,2.116-2.162,2.966-3.922
			c0.661-1.37,1.505-3.021,2.755-3.955c0.89-0.665,1.979-0.466,3.031-0.979c1.209-0.589,1.903-1.707,2.363-2.905
			c0.516-1.337,1.411-1.833,2.377-2.895c1.128-1.235,1.336-1.743,3.058-1.859c1.479-0.104,1.09-0.39,1.804-1.462
			c1.034-1.557,2.896-1.634,4.415-2.249c0.997-0.407,4.156-2.363,4.431-3.491c0.271-1.106-1.267-1.647-1.936-2.12
			c-1.721-1.216-0.596-1.229-0.447-2.979c0.173-2.027-2.046-0.769-3.384-0.891c0.045-1.623-0.487-2.525-1.818-3.47
			c-1.388-0.986-2.326-1.507-1.79-3.271c0.309-1.018,1.15-1.334,1.646-2.169c0.398-0.673-0.024-1.4,0.25-2.107
			c0.706-1.818,3.045-1.41,4.613-1.464c2.081-0.072,1.965-1.812,2.079-3.476c1.626-0.203,1.829,1.827,2.353,2.884
			c-0.776-0.7,0.167-0.946,0.863-1.209c1.609-0.604,3.211-1.132,4.494-2.343c0.771-0.725,1.323-1.808,1.809-2.781
			c0.787-1.585,0.77-1.539,1.927-0.397c1.41,1.387,3.16,1.155,5.073,0.707c1.294-0.3,1.035-0.163,2.002,0.874
			c0.557,0.6,1.174,1.152,1.699,1.824c1.36,1.729,3.64,1.695,5.218,3.131c1.034,0.938,1.359,2.947,2.618,4.024
			c1.231,1.059,2.789,1.152,4.347,1.351c3.741,0.47,6.968,0.965,10.372,2.277c0.902,0.352,1.824,0.813,2.707,1.121
			c0.979,0.342,1.988,0.514,2.96,0.885c0.485,0.188,1.204,0.862,1.567,0.929c1.096,0.195,2.203-1.097,3.312-1.243
			c1.774-0.239,1.822,0.435,2.217,1.914c0.437,1.641,0.308,3.504,1.095,5.047c0.799,1.559,2.656,2.753,3.852,4.043
			C1390.428,975.202,1395.295,990.088,1395.295,1004.661z"/>
	</g>
	<path id="Hill" fill="#C1CCAB" d="M1942.002,897.496v275.656h-737.543c50.256-82.429,131.304-136.682,138.544-156.745
		c13.583-59.455,78.807-74.238,111.378-83.778c39.391-54.05,231.423-74.954,244.489-71.616c25.808,9.459,50.257,0,50.257,0
		c9.154-19.499,157.926,36.064,189.696,36.064L1942.002,897.496z"/>
</g>
</svg>
